<?xml version="1.0" encoding="utf-8"?>
<!-- Generator: Adobe Illustrator 27.1.1, SVG Export Plug-In . SVG Version: 6.00 Build 0)  -->
<svg version="1.1" id="Camada_1" xmlns="http://www.w3.org/2000/svg" xmlns:xlink="http://www.w3.org/1999/xlink" x="0px" y="0px"
	 viewBox="0 0 168.93 104.42" style="enable-background:new 0 0 168.93 104.42;" xml:space="preserve">
<style type="text/css">
	.st0{fill:#FFFFFF;}
</style>
<g>
	<path class="st0" d="M149.86,96.34c-0.02,0-0.04,0-0.06,0H19.07c-0.97,0-1.88-0.5-2.39-1.33c-0.51-0.83-0.55-1.86-0.12-2.73
		l6.77-13.43C33.56,58.57,54.01,45.99,76.7,45.99h58.57l-3.02-12.27c-2.9-11.79-13.41-20.03-25.55-20.03H44.54
		c-1.55,0-2.8-1.25-2.8-2.8s1.25-2.8,2.8-2.8h62.15c14.73,0,27.48,9.99,31,24.3l3.87,15.72c0,0.01,0.01,0.02,0.01,0.02l10.99,44.68
		c0.03,0.13,0.06,0.26,0.08,0.39c0.04,0.33,0.02,0.65-0.05,0.96c-0.09,0.42-0.28,0.8-0.54,1.12c-0.25,0.32-0.57,0.58-0.94,0.77
		c-0.28,0.14-0.59,0.24-0.92,0.28C150.08,96.33,149.97,96.34,149.86,96.34z M23.63,90.73h122.65l-9.63-39.13H76.7
		c-20.56,0-39.09,11.41-48.35,29.77L23.63,90.73z"/>
	<g>
		<path class="st0" d="M64.56,83.87c-6.24,0-11.32-5.08-11.32-11.32c0-6.24,5.08-11.32,11.32-11.32c6.24,0,11.32,5.08,11.32,11.32
			C75.88,78.79,70.8,83.87,64.56,83.87z M64.56,66.84c-3.15,0-5.71,2.56-5.71,5.71c0,3.15,2.56,5.71,5.71,5.71
			c3.15,0,5.71-2.56,5.71-5.71C70.27,69.4,67.71,66.84,64.56,66.84z"/>
		<path class="st0" d="M91.53,83.87c-6.24,0-11.32-5.08-11.32-11.32c0-6.24,5.08-11.32,11.32-11.32c6.24,0,11.32,5.08,11.32,11.32
			C102.85,78.79,97.77,83.87,91.53,83.87z M91.53,66.84c-3.15,0-5.71,2.56-5.71,5.71c0,3.15,2.56,5.71,5.71,5.71
			s5.71-2.56,5.71-5.71C97.24,69.4,94.68,66.84,91.53,66.84z"/>
		<path class="st0" d="M118.5,83.87c-6.24,0-11.32-5.08-11.32-11.32c0-6.24,5.08-11.32,11.32-11.32c6.24,0,11.32,5.08,11.32,11.32
			C129.82,78.79,124.74,83.87,118.5,83.87z M118.5,66.84c-3.15,0-5.71,2.56-5.71,5.71c0,3.15,2.56,5.71,5.71,5.71
			c3.15,0,5.71-2.56,5.71-5.71C124.21,69.4,121.65,66.84,118.5,66.84z"/>
	</g>
</g>
</svg>
