<svg width="673" height="482" viewBox="0 0 673 482" fill="none" xmlns="http://www.w3.org/2000/svg">
<path d="M475.639 218.603C475.639 261.067 510.18 295.608 552.644 295.608C595.108 295.608 629.649 261.067 629.649 218.603C629.644 176.139 595.097 141.608 552.633 141.608C510.169 141.608 475.639 176.15 475.639 218.603ZM599.769 218.603C599.769 244.592 578.624 265.739 552.633 265.739C526.644 265.739 505.497 244.594 505.497 218.603C505.497 192.612 526.643 171.467 552.633 171.467C578.623 171.467 599.769 192.612 599.769 218.603Z" fill="#FBFEFD"/>
<path d="M181.092 335.296C183.712 335.296 186.363 334.609 188.769 333.161L345.489 238.958C351.932 235.083 354.494 227.021 351.463 220.136L305.051 114.833C300.952 104.656 301.285 93.8063 305.983 85.0729C310.421 76.8229 318.301 71.1556 328.473 69.0783L501.339 30.2663C507.313 29.0423 513.36 30.3131 518.35 33.8444C523.34 37.3704 526.548 42.6465 527.386 48.6937C528.949 59.9385 521.48 70.6471 510.646 73.0217L390.86 97.1097C382.058 99.0368 374.844 104.839 371.089 113.027C367.323 121.209 367.61 130.459 372.084 138.776L480.125 326.736C484.224 333.882 493.349 336.351 500.51 332.242C507.662 328.137 510.125 319.002 506.016 311.856L399.114 125.91L516.781 102.248C543.005 96.5087 560.656 71.1803 556.969 44.5923C555.011 30.4883 547.224 17.6803 535.6 9.4616C523.975 1.24293 509.308 -1.83533 495.078 1.07093L322.225 39.8829C303.501 43.7111 288.386 54.7429 279.678 70.9456C270.777 87.5136 269.934 107.576 277.543 126.451L318.835 220.148L173.395 307.56C166.322 311.81 164.041 320.987 168.286 328.055C171.088 332.716 176.03 335.3 181.098 335.3L181.092 335.296Z" fill="#FBFEFD"/>
<path d="M657.065 366.576C635.06 366.576 624.967 359.415 612.175 350.352C597.815 340.17 581.535 328.623 550.013 328.623C518.497 328.623 502.221 340.165 487.852 350.358C475.076 359.42 464.972 366.582 442.977 366.582C420.983 366.582 410.884 359.42 398.103 350.358C383.743 340.175 367.463 328.623 335.952 328.623C304.441 328.623 288.171 340.165 273.816 350.358C261.04 359.42 250.947 366.582 228.961 366.582C206.967 366.582 196.868 359.42 184.092 350.358C169.732 340.175 153.456 328.623 121.941 328.623C90.4307 328.623 74.1547 340.165 59.796 350.358C47.0148 359.415 36.9213 366.576 14.932 366.576C6.6872 366.576 0 373.269 0 381.508C0 389.753 6.69266 396.44 14.932 396.44C46.4427 396.44 62.7187 384.899 77.0773 374.706C89.8533 365.643 99.9467 358.482 121.947 358.482C143.941 358.482 154.04 365.643 166.816 374.706C181.176 384.888 197.452 396.44 228.967 396.44C260.477 396.44 276.748 384.899 291.103 374.706C303.879 365.643 313.972 358.482 335.963 358.482C357.957 358.482 368.056 365.643 380.837 374.706C395.197 384.888 411.477 396.44 442.988 396.44C474.504 396.44 490.78 384.899 505.149 374.711C517.925 365.649 528.029 358.487 550.024 358.487C572.029 358.487 582.123 365.649 594.915 374.711C609.275 384.893 625.555 396.44 657.076 396.44C665.321 396.44 672.008 389.748 672.008 381.508C672.003 373.264 665.305 366.576 657.065 366.576Z" fill="#FBFEFD"/>
<path d="M657.065 451.443C635.06 451.443 624.967 444.282 612.175 435.219C597.815 425.037 581.535 413.49 550.013 413.49C518.497 413.49 502.221 425.031 487.852 435.219C475.076 444.282 464.972 451.443 442.977 451.443C420.983 451.443 410.884 444.282 398.103 435.219C383.743 425.037 367.463 413.484 335.952 413.484C304.441 413.484 288.171 425.026 273.816 435.219C261.04 444.282 250.947 451.443 228.961 451.443C206.967 451.443 196.868 444.282 184.092 435.219C169.732 425.037 153.456 413.484 121.941 413.484C90.4307 413.484 74.1547 425.026 59.796 435.219C47.0148 444.282 36.9213 451.443 14.932 451.443C6.6872 451.443 0 458.136 0 466.375C0 474.62 6.69266 481.307 14.932 481.307C46.4427 481.307 62.7187 469.765 77.0773 459.572C89.8533 450.51 99.9467 443.348 121.947 443.348C143.941 443.348 154.04 450.51 166.816 459.572C181.176 469.755 197.452 481.307 228.967 481.307C260.477 481.307 276.748 469.765 291.103 459.572C303.879 450.51 313.972 443.348 335.963 443.348C357.957 443.348 368.056 450.51 380.837 459.572C395.197 469.755 411.477 481.307 442.988 481.307C474.504 481.307 490.78 469.765 505.149 459.572C517.925 450.51 528.029 443.348 550.024 443.348C572.029 443.348 582.123 450.51 594.915 459.572C609.275 469.755 625.555 481.302 657.076 481.302C665.321 481.302 672.008 474.609 672.008 466.37C672.003 458.125 665.305 451.443 657.065 451.443Z" fill="#FBFEFD"/>
</svg>
