<?xml version="1.0" encoding="utf-8"?>
<!-- Generator: Adobe Illustrator 27.1.1, SVG Export Plug-In . SVG Version: 6.00 Build 0)  -->
<svg version="1.1" id="Camada_1" xmlns="http://www.w3.org/2000/svg" xmlns:xlink="http://www.w3.org/1999/xlink" x="0px" y="0px"
	 viewBox="0 0 184.49 146.98" style="enable-background:new 0 0 184.49 146.98;" xml:space="preserve">
<style type="text/css">
	.st0{fill:#FFFFFF;}
</style>
<g>
	<g>
		<g>
			<path class="st0" d="M81.08,96.66c-2.05-2.05-3.98-3.98-5.92-5.91C63.14,78.73,51.12,66.71,39.11,54.68
				c-2.84-2.85-4.05-6.3-3.66-10.31c0.6-6.2,6.19-11.91,13.98-10.99c2.98,0.35,5.55,1.65,7.69,3.8
				c6.62,6.66,13.27,13.29,19.91,19.93c0.12,0.12,0.25,0.22,0.43,0.38c0.31-1.79,0.87-3.41,1.83-4.88c1.95-2.99,4.67-4.87,8.18-5.53
				c1.95-0.36,3.88-0.29,5.82,0.31c1.02,0.31,2,0.68,2.93,1.17c0.34,0.18,0.41,0.13,0.46-0.25c1-6.75,7.04-11.36,13.82-10.55
				c1.87,0.22,3.61,0.8,5.29,1.81c0.18-1.25,0.43-2.41,0.92-3.5c1.81-4.06,4.89-6.63,9.27-7.39c4.41-0.77,8.29,0.5,11.48,3.68
				c6.93,6.91,13.84,13.83,20.75,20.75c4.5,4.51,9.08,8.94,13.46,13.56c5.2,5.47,8.65,11.96,10.51,19.28
				c0.47,1.85,0.8,3.73,1.04,5.64c0.26,1.99,0.44,3.97,0.37,5.96c-0.1,2.88-0.34,5.74-0.89,8.59c-1.82,9.34-6.29,17.17-13.03,23.8
				c-2.59,2.54-5.09,5.17-8.04,7.32c-4.5,3.29-9.42,5.7-14.8,7.15c-2.38,0.64-4.79,1.02-7.24,1.31c-2.72,0.32-5.45,0.36-8.17,0.19
				c-2.41-0.15-4.81-0.58-7.17-1.16c-4.17-1.03-8.09-2.65-11.86-4.7c-8.85-4.8-17.87-9.29-26.8-13.94
				c-3.71-1.93-7.46-3.81-11.16-5.77c-3.32-1.76-5.41-4.52-6.38-8.16c-0.52-1.97-0.58-3.98-0.04-5.87c1.36-4.81,4.43-8.05,9.39-9.3
				C78.55,96.72,79.72,96.66,81.08,96.66z M108.85,42.73c-3.99-0.1-7.29,3.3-7.32,7.45c-0.01,2.01,0.78,3.79,2.22,5.23
				c2.99,3,5.99,6,8.99,8.99c2.18,2.18,4.34,4.39,6.56,6.54c1.18,1.15,1,3.42-0.58,4.14c-0.94,0.43-2.02,0.43-3.08-0.64
				c-6.73-6.76-13.48-13.52-20.25-20.25c-2.25-2.24-4.99-2.88-8.02-1.91c-3.02,0.97-4.91,3.73-5.02,6.91
				c-0.08,2.09,0.72,3.91,2.19,5.39c2.38,2.41,4.79,4.8,7.19,7.19c3.27,3.27,6.55,6.54,9.82,9.82c1.11,1.11,1.12,2.6,0.15,3.67
				c-0.76,0.84-2.88,0.97-3.69-0.11c-0.18-0.24-0.43-0.43-0.64-0.65c-5.45-5.45-10.9-10.9-16.36-16.35
				c-3.95-3.95-7.9-7.9-11.85-11.85c-5.26-5.26-10.5-10.53-15.78-15.77c-2.57-2.55-6.92-3.43-10.37-0.52
				c-3.34,2.82-3.61,7.78-0.43,10.97c10.13,10.16,20.29,20.3,30.44,30.45c6.84,6.84,13.68,13.68,20.52,20.53
				c1.09,1.09,1.23,2.37,0.44,3.45c-0.79,1.07-2.1,1.31-3.44,0.62c-2.22-1.14-4.44-2.28-6.65-3.44c-1.63-0.85-3.33-1.12-5.14-0.78
				c-4.08,0.78-6.76,5.18-5.88,8.8c0.61,2.49,2,4.27,4.27,5.43c10.15,5.22,20.29,10.46,30.43,15.71c3.49,1.81,6.93,3.71,10.45,5.45
				c2.95,1.46,6.09,2.41,9.33,3.02c1.41,0.26,2.82,0.53,4.24,0.59c2.14,0.09,4.27,0.14,6.43-0.07c2.02-0.2,4.02-0.44,5.99-0.9
				c5.02-1.16,9.65-3.23,13.9-6.16c2.94-2.02,5.39-4.58,7.93-7.05c3.99-3.87,7.23-8.26,9.43-13.38c1.42-3.32,2.42-6.74,2.87-10.34
				c0.26-2.02,0.46-4.03,0.46-6.05c0-1.05-0.13-2.11-0.2-3.16c-0.12-1.74-0.37-3.46-0.75-5.16c-1.6-7.23-4.9-13.59-10.05-18.91
				c-4.65-4.81-9.44-9.49-14.18-14.23c-6.5-6.5-13.01-13-19.5-19.51c-0.94-0.94-2.01-1.65-3.26-2.04c-5.03-1.58-9.67,1.78-9.94,6.94
				c-0.11,2.13,0.81,3.98,2.33,5.51c2.13,2.14,4.27,4.28,6.41,6.41c2.17,2.17,4.34,4.33,6.51,6.5c0.91,0.91,1.06,2.36,0.48,3.33
				c-0.69,1.17-2.88,1.44-4.02,0.29c-5.87-5.94-11.8-11.82-17.7-17.73C113.11,43.52,111.19,42.69,108.85,42.73z"/>
			<path class="st0" d="M44.61,10.83c0-2.32,0-4.65,0-6.97c0-1.69,1.05-2.87,2.6-2.89c1.58-0.02,2.69,1.13,2.7,2.86
				c0.02,3.39,0,6.78,0,10.17c0,1.28,0.01,2.56-0.01,3.85c-0.02,1.44-0.8,2.37-2.04,2.75c-1.49,0.46-3.27-0.91-3.25-2.52
				C44.62,15.65,44.61,13.24,44.61,10.83C44.61,10.83,44.61,10.83,44.61,10.83z"/>
			<path class="st0" d="M29.2,26.25c0,1.27-0.51,2.12-1.53,2.5c-0.89,0.33-2.12,0.23-2.99-0.66c-2.8-2.85-5.64-5.66-8.46-8.48
				c-0.54-0.54-1.08-1.07-1.6-1.62c-1.16-1.22-1.02-2.65-0.03-3.7c1.03-1.09,2.69-1.09,3.78,0c3.37,3.35,6.73,6.72,10.09,10.08
				C29.01,24.92,29.34,25.55,29.2,26.25z"/>
			<path class="st0" d="M28.81,67.42c0.15,0.78-0.25,1.39-0.81,1.95c-3.32,3.31-6.64,6.64-9.96,9.96c-0.8,0.8-1.96,1.1-2.77,0.74
				c-1.29-0.58-1.93-1.5-1.85-2.76c0.04-0.64,0.35-1.19,0.81-1.65c3.39-3.4,6.79-6.79,10.18-10.19c1.06-1.06,3.38-0.98,4.2,0.62
				C28.82,66.5,28.82,66.92,28.81,67.42z"/>
			<path class="st0" d="M67.68,29.33c-1.06,0-2.04-0.61-2.42-1.57c-0.43-1.09-0.25-2.1,0.58-2.95c1.29-1.32,2.61-2.61,3.92-3.92
				c2.03-2.03,4.06-4.06,6.09-6.08c1.19-1.18,2.78-1.25,3.88-0.17c1.09,1.07,1.05,2.7-0.13,3.88c-3.3,3.31-6.6,6.61-9.9,9.92
				C69.14,29,68.5,29.34,67.68,29.33z"/>
			<path class="st0" d="M10.81,44.13c2.41,0,4.82-0.02,7.23,0.01c1.25,0.01,2.25,0.87,2.51,2.06c0.26,1.17-0.34,2.39-1.44,2.93
				c-0.37,0.18-0.77,0.27-1.19,0.27c-4.76-0.01-9.52,0-14.27-0.01c-1.54,0-2.76-1.16-2.77-2.59c0-1.51,1.18-2.66,2.75-2.67
				C6.03,44.12,8.42,44.13,10.81,44.13C10.81,44.13,10.81,44.13,10.81,44.13z"/>
			<path class="st0" d="M49.35,83.26c0,2.33,0,4.65,0,6.98c0,0.6-0.11,1.15-0.43,1.67c-0.63,1.01-1.91,1.33-2.75,1.13
				c-1.27-0.3-2.04-1.28-2.08-2.5c-0.02-0.76-0.01-1.52-0.01-2.28c0-4.02,0.01-8.04,0-12.07c0-1.04,0.4-1.85,1.28-2.41
				c1.52-0.97,3.94,0.06,3.99,2.11c0.02,0.93,0.01,1.87,0.01,2.8C49.35,80.22,49.35,81.74,49.35,83.26z"/>
		</g>
	</g>
</g>
</svg>
