<?xml version="1.0" encoding="utf-8"?>
<!-- Generator: Adobe Illustrator 27.1.1, SVG Export Plug-In . SVG Version: 6.00 Build 0)  -->
<svg version="1.1" id="Camada_1" xmlns="http://www.w3.org/2000/svg" xmlns:xlink="http://www.w3.org/1999/xlink" x="0px" y="0px"
	 viewBox="0 0 509.01 347.84" style="enable-background:new 0 0 509.01 347.84;" xml:space="preserve">
<style type="text/css">
	.st0{fill:#FFFFFF;}
</style>
<g>
	<g>
		<path class="st0" d="M1.96,333.5C-2.2,318.98,10,303.69,31.93,297.4c9.22-2.65,18.72-3.25,26-1.72l-0.08,12.05l-0.27,0.16
			c-6.68-2.17-15.62-2.12-24.12,0.31c-14.6,4.19-20.03,13.21-18.11,19.89c1.71,5.96,7.89,7.49,18.13,4.55
			c8.93-2.56,17.45-8.23,24.32-15.23l0.31-0.01l0.01,13.75c-7.51,6.16-14.77,9.9-23.41,12.37C18.29,348.24,5.32,345.2,1.96,333.5z"
			/>
		<path class="st0" d="M114.27,312.85c-4.81,6.8-11.57,11.18-19.71,13.51c-17.36,4.98-26.71-4.05-26.64-16.42L68,288l13.73-3.94
			l-0.27,20.44c-0.12,9.47,5.29,13.5,14.8,10.77c11.4-3.27,17.65-13,17.99-29.92l0.02-10.62l13.58-3.89l0.02,45.04l-13.58,3.89
			L114.27,312.85z"/>
		<path class="st0" d="M136.69,248.18l15.47-4.44l-0.02,12.27l-15.47,4.44L136.69,248.18z M138.1,267.9l13.44-3.85l0.02,45.04
			l-13.44,3.85L138.1,267.9z"/>
		<path class="st0" d="M209.79,286.56c-4.49,5.45-11.36,10.02-20.94,12.77c-15.04,4.31-25.79-0.31-28.81-10.84
			c-4.35-15.18,7.95-30.11,28.29-35.94c8.86-2.54,16.49-1.98,21.48,1.7l0-18.63l13.44-3.85l0,56.75l-13.44,3.85L209.79,286.56z
			 M209.38,266.48c-1.6-5.59-7.78-7.12-17.8-4.25c-13.58,3.89-20.2,13.18-17.97,20.95c1.6,5.59,7.93,7.63,17.95,4.76
			C205,284.09,211.61,274.25,209.38,266.48z"/>
		<path class="st0" d="M280.98,266.7c-4.55,5.24-11.14,9.4-19.06,11.67c-16.49,4.73-27.47-0.69-30.1-9.84
			c-4.6-16.05,8.15-30.79,26.96-36.19c9.37-2.69,17.1-2.31,22.2,0.94l-0.02-6.36l13.44-3.85l0.02,45.04L281,271.96L280.98,266.7z
			 M281.02,249.55l-0.06-0.22c-0.01-0.86-0.09-1.7-0.32-2.5c-1.81-6.32-8.13-7.81-18.01-4.97c-13.22,3.79-20.04,13.45-17.89,20.93
			c1.67,5.81,7.49,7.76,17.59,4.86C274.37,264.2,280.88,256.2,281.02,249.55z"/>
		<path class="st0" d="M352.68,245.59c-4.49,5.45-11.36,10.02-20.94,12.77c-15.04,4.31-25.79-0.31-28.81-10.84
			c-4.35-15.18,7.95-30.11,28.29-35.94c8.86-2.54,16.49-1.98,21.48,1.7l0-18.63l13.44-3.85l0,56.75l-13.44,3.85L352.68,245.59z
			 M352.27,225.51c-1.6-5.59-7.78-7.12-17.8-4.25c-13.58,3.9-20.2,13.18-17.97,20.95c1.6,5.59,7.93,7.63,17.95,4.76
			C347.88,243.12,354.49,233.28,352.27,225.51z"/>
		<path class="st0" d="M374.65,226.79c-4.1-14.31,6.11-29.42,29.35-36.08c18.16-5.21,30.36-1.87,33.56,9.32
			c4.17,14.53-6.1,29.73-29.34,36.4C390.07,241.63,377.92,238.2,374.65,226.79z M424.59,205.48c-1.65-5.74-7.57-7.5-18.69-4.31
			c-13.95,4-20.52,12.33-18.19,20.46c1.67,5.81,7.55,7.42,18.38,4.32C420.33,221.87,426.9,213.54,424.59,205.48z"/>
		<path class="st0" d="M444.67,219.29l0.08-10.95l0.2-0.13c9.88,2.12,20.57,1.57,31.76-1.64c9.01-2.58,13.21-5.2,12.5-7.67
			c-2.06-7.19-38.89,11.86-43.91-5.65c-2.5-8.72,5.92-16.08,24.66-21.46c10.53-3.02,22.11-4.85,28.75-4.47l-0.29,10.77l-0.2,0.13
			c-7.62-0.25-18.28,1.23-26.77,3.67c-8.72,2.5-13.4,5.1-12.83,7.06c1.6,5.59,38.77-12.29,43.72,4.99c2.6,9.08-6.7,17.48-25,22.73
			C465.71,220.02,453.56,220.99,444.67,219.29z"/>
	</g>
	<g>
		<path class="st0" d="M169.65,339.62c-2.21-7.71,4.52-15.89,15.82-19.12c5.49-1.57,10.22-1.42,14.23-0.34l-0.05,3.11l-0.15,0.09
			c-3.93-1.24-8.26-1.5-13.39-0.03c-9.11,2.61-14.67,9.03-12.97,14.95c1.35,4.69,6.47,6.06,13.07,4.17
			c4.57-1.31,9.54-4.11,13.23-7.88l0.17-0.01l-0.01,3.88c-3.99,3.34-8.06,5.5-12.68,6.82C177.51,347.96,171.37,345.63,169.65,339.62
			z"/>
		<path class="st0" d="M205.32,329.83c-2.22-7.75,4.49-16.31,15.98-19.6c8.87-2.54,15.39-0.5,17.02,5.19
			c2.25,7.83-4.43,16.38-15.92,19.67C213.42,337.66,206.97,335.59,205.32,329.83z M234.83,316.76c-1.22-4.25-6.27-5.52-13.19-3.53
			c-9.3,2.67-14.51,9.41-12.84,15.26c1.24,4.33,6.02,5.68,13.25,3.6C231.28,329.44,236.56,322.76,234.83,316.76z"/>
		<path class="st0" d="M247.56,318.96l0,8.39l-3.42,0.98l0.01-24.14l3.42-0.98v5.55c2.6-4.88,6.94-8.06,11.95-9.5
			c5.53-1.58,9.53-0.37,11.23,4.18c2.48-5.75,7.26-9.49,12.79-11.07c7.32-2.1,12,0.73,12.06,9.62l0.01,11.58l-3.42,0.98l0-10.8
			c0.04-7.67-2.52-10.12-8.4-8.44c-6.88,1.97-12.02,8.05-12.21,17.01l0.01,0.94l-0.01,0.13l0,7.06l-3.42,0.98l0-10.8
			c0.04-7.67-2.56-10.11-8.4-8.44C252.91,304.17,247.83,310.15,247.56,318.96z"/>
		<path class="st0" d="M342.7,296.28c-2.58,3.45-6.91,6.2-12.72,7.86c-9.27,2.66-15.13,0.81-16.82-5.08
			c-2.33-8.11,4.03-16.26,15.48-19.54c6.12-1.76,11.23-1.2,14.05,1.13l0.02-4.74l3.42-0.98l0,24.14l-3.42,0.98L342.7,296.28z
			 M342.3,285.43c-1.04-3.62-5.7-5.16-12.74-3.15c-9.34,2.68-14.69,9.25-12.91,15.45c1.24,4.33,5.88,5.63,12.95,3.6
			C338.91,298.66,344.19,292.03,342.3,285.43z"/>
		<path class="st0" d="M370.93,288.62l0,13.34l-7.36,2.11l0.01-34.64l7.36-2.11l-0.01,3.4c2.61-3.2,6.48-5.77,11.25-7.14
			c8.63-2.47,14.22,0.36,15.79,5.84c2.09,7.28-3.3,16.26-15.31,19.71C377.52,290.6,373.55,290.41,370.93,288.62z M390.89,272.53
			c-1.01-3.54-4.44-4.37-9.88-2.8c-5.85,1.68-9.88,5.63-10.07,9.6l0.01,0.64c-0.01,0.43,0.08,0.88,0.21,1.32
			c0.89,3.1,4.28,4.11,9.65,2.57C388.23,281.72,392.09,276.7,390.89,272.53z"/>
		<path class="st0" d="M419.83,278.47c-9.94,2.85-16.45,0.71-18.23-5.49c-2.12-7.4,3.79-16.06,15.56-19.44
			c10.66-3.06,17.97,0.4,17.7,9.34l-25.89,7.42c0.62,3.35,3.82,4.03,10.26,2.18c5.69-1.63,9.61-4,13.67-8.14l0.15,0.09l0.04,7.04
			C429.01,274.89,424.69,277.08,419.83,278.47z M408.87,265.74l18.85-5.4c-1.32-2.21-4.6-2.98-9.57-1.56
			C412.86,260.29,409.7,263.09,408.87,265.74z"/>
		<path class="st0" d="M460.13,266.66l-2.4,8.44l-7.44,2.13l-0.01-0.17l3.12-8.34c-7.69,1.56-13.62-0.36-15.27-6.12
			c-2.28-7.95,4.4-16.32,16.41-19.77c5.05-1.45,10.25-1.78,14.23-0.94l-0.04,6.6l-0.15,0.09c-3.65-1.19-8.55-1.16-13.21,0.17
			c-7.99,2.29-10.97,7.23-9.92,10.89c0.94,3.26,4.32,4.1,9.92,2.49c4.89-1.4,9.55-4.5,13.32-8.34l0.17,0l0.01,7.53
			C465.99,263.69,463.21,265.39,460.13,266.66z"/>
		<path class="st0" d="M500.49,251.94c-2.49,2.87-6.1,5.15-10.43,6.39c-9.03,2.59-15.04-0.38-16.48-5.39
			c-2.52-8.79,4.46-16.86,14.76-19.81c5.13-1.47,9.36-1.27,12.15,0.52l-0.01-3.48l7.36-2.11l0.01,24.66l-7.36,2.11L500.49,251.94z
			 M500.51,242.56l-0.03-0.12c-0.01-0.47-0.05-0.93-0.18-1.37c-0.99-3.46-4.45-4.27-9.86-2.72c-7.24,2.08-10.97,7.36-9.8,11.46
			c0.91,3.18,4.1,4.25,9.63,2.66C496.87,250.57,500.43,246.19,500.51,242.56z"/>
	</g>
	<g>
		<g>
			<g>
				<path class="st0" d="M265.01,115.8c-14.2-2.23-30.49-4.02-30.49-4.02v68.88l31.33-1.71c46.78-3.61,66.83-9.53,66.83-23.83
					C332.69,139.98,309.57,122.79,265.01,115.8"/>
			</g>
			<g>
				<path class="st0" d="M170.91,1.47L170.91,1.47v39.57v41.28c69,10.02,107.74,21.84,131.78,34.61
					c19.99,10.61,28.85,19.79,32.95,26.23V95.53c0-22.65-7.58-33.84-17.69-43.06C300.33,36.39,256.91,14.21,170.91,1.47"/>
			</g>
		</g>
	</g>
</g>
</svg>
