<svg width="519" height="625" viewBox="0 0 519 625" fill="none" xmlns="http://www.w3.org/2000/svg">
<path d="M107.319 330.971C105.243 317.839 110.086 303.391 120.472 292.884C128.087 285.66 137.086 281.72 146.082 280.405C144.006 266.613 148.158 252.17 159.235 241.662C164.083 237.063 168.926 233.783 174.463 231.813L116.32 176.653C97.6296 158.921 97.6296 130.026 116.32 112.299C135.011 94.5671 165.469 94.5671 184.154 112.299L314.979 235.756C334.361 231.157 355.817 234.441 373.122 246.919L425.037 285.007C452.722 305.363 470.027 335.573 472.104 369.063L477.642 451.149L514.329 485.953C520.557 491.862 520.557 500.4 514.329 506.309C508.1 512.218 499.1 512.218 492.872 506.309L452.033 467.566C449.267 464.941 447.881 461.657 447.881 458.373L442.343 371.033C440.957 346.078 427.804 323.096 407.042 307.989L355.127 269.901C339.899 258.738 319.132 260.708 305.979 273.185L251.988 326.376C245.064 332.945 245.759 343.449 251.988 350.017C255.45 353.301 260.292 355.271 265.141 354.616C269.988 354.616 274.141 352.646 277.598 349.362L313.593 311.928C318.441 306.674 327.436 306.019 333.664 309.958L361.35 329C368.274 333.599 369.654 342.793 364.812 349.356C359.964 355.925 350.273 357.235 343.355 352.64L329.512 342.792C309.441 395.328 348.894 427.502 350.969 428.817C357.198 434.071 358.583 442.61 353.045 449.173L351.659 450.488C346.121 455.742 337.817 456.397 331.588 451.802C314.974 439.324 294.212 411.089 293.516 374.316C285.211 380.225 275.52 384.164 265.135 384.164C260.287 384.164 255.444 383.509 251.292 382.194C249.216 390.733 245.064 399.267 238.139 405.835C227.063 416.343 212.529 420.282 197.992 418.313C196.606 427.507 191.763 436.7 184.839 443.268C179.991 447.868 173.763 451.807 166.843 453.777C191.762 487.266 222.22 518.131 245.062 539.147C265.134 557.534 293.515 565.412 320.511 559.503L337.129 555.559C341.977 554.245 347.51 556.214 350.972 559.499L393.887 600.212C400.116 606.121 400.116 614.659 393.887 620.568C387.658 626.477 378.659 626.477 372.43 620.568L335.744 585.764L328.129 587.733C290.753 595.612 251.985 585.764 224.3 560.153C195.919 533.887 157.157 494.484 129.47 451.802C125.318 449.832 121.166 447.203 117.013 443.263L81.0179 409.114C62.3274 391.383 62.3274 362.487 81.0179 344.76C87.937 336.881 97.6282 332.942 107.318 330.972L107.319 330.971ZM262.371 274.496L283.828 253.485C285.214 252.17 286.595 251.515 287.98 250.2L164.077 132.653C157.153 126.085 145.387 126.085 138.467 132.653C131.543 139.222 131.543 150.385 138.467 156.95L262.371 274.496ZM241.604 294.852L206.303 261.363C199.379 254.794 187.613 254.794 180.693 261.363C173.769 267.931 173.769 278.435 180.693 285.659L219.455 322.432C221.531 316.523 224.993 311.269 229.836 306.67L241.604 294.852ZM191.766 384.822C198.69 391.391 210.456 391.391 217.376 384.822C224.3 378.253 224.3 367.09 217.376 360.526L167.538 313.244C160.614 306.676 148.847 306.676 141.928 313.244C135.004 319.813 135.004 330.976 141.928 337.541L191.766 384.822ZM101.779 388.102L137.775 422.251C144.698 428.819 156.465 428.819 163.385 422.251C170.308 415.682 170.308 404.519 163.385 397.954L127.389 363.806C120.465 357.237 108.699 357.237 101.779 363.806C94.86 371.029 94.86 381.537 101.779 388.102Z" fill="#FBFEFD"/>
<path d="M71.9516 90.8013L43.6572 63.8302C37.4476 57.911 37.4476 49.3585 43.6572 43.4394C49.8668 37.5202 58.8389 37.5202 65.0484 43.4394L93.3428 70.4105C99.5524 76.3297 99.5524 84.8822 93.3428 90.8013C87.1332 96.7251 78.1611 96.0643 71.9516 90.8013Z" fill="#FBFEFD"/>
<path d="M151 67.9997C142.82 67.9997 136 61.3957 136 53.4752V14.5244C136 6.60344 142.82 0 151 0C159.18 0 166 6.60391 166 14.5244V53.4752C166 57.4357 164.635 60.7377 161.91 63.3763C159.18 66.6783 155.09 67.9997 151 67.9997Z" fill="#FBFEFD"/>
<path d="M14.6542 131H55.6959C64.0421 131 71 137.514 71 145.327C71 149.234 69.6074 152.491 66.8269 155.093C64.0465 157.696 60.5672 159 56.3943 159H15.3526C7.00636 159 0.0484321 152.486 0.0484321 144.673C-0.650316 136.865 6.30787 131 14.6542 131Z" fill="#FBFEFD"/>
</svg>
