<svg width="700" height="467" viewBox="0 0 700 467" fill="none" xmlns="http://www.w3.org/2000/svg">
<path d="M664.999 186.665H653.333V151.665C653.333 139.29 648.416 127.42 639.666 118.665C630.911 109.915 619.041 104.999 606.666 104.999C598.447 105.046 590.395 107.285 583.333 111.483V58.3324C583.333 37.4937 572.213 18.2337 554.166 7.8164C536.119 -2.60547 513.879 -2.60547 495.833 7.8164C477.786 18.2331 466.666 37.4937 466.666 58.3324V186.666H233.333V58.3324C233.333 37.4937 222.213 18.2337 204.166 7.8164C186.119 -2.60547 163.879 -2.60547 145.833 7.8164C127.786 18.2331 116.666 37.4937 116.666 58.3324V111.483C109.603 107.285 101.551 105.046 93.3327 104.999C80.9577 104.999 69.0873 109.915 60.3327 118.665C51.5827 127.421 46.666 139.291 46.666 151.665V186.665H34.9993C25.7181 186.665 16.8113 190.353 10.25 196.915C3.68867 203.478 0 212.385 0 221.665V244.998C0 254.279 3.68747 263.186 10.25 269.747C16.8125 276.309 25.7193 279.997 34.9993 279.997H46.666V314.997C46.666 327.372 51.5827 339.243 60.3327 347.997C69.0879 356.747 80.958 361.664 93.3327 361.664C101.551 361.617 109.603 359.378 116.666 355.18V408.33C116.666 429.169 127.786 448.429 145.833 458.846C163.879 469.268 186.119 469.268 204.166 458.846C222.213 448.43 233.333 429.169 233.333 408.33V279.997H466.666V408.33C466.666 429.169 477.786 448.429 495.833 458.846C513.879 469.268 536.119 469.268 554.166 458.846C572.213 448.43 583.333 429.169 583.333 408.33V355.18C590.395 359.377 598.447 361.617 606.666 361.664C619.041 361.664 630.911 356.747 639.666 347.997C648.416 339.242 653.333 327.372 653.333 314.997V279.997H664.999C674.281 279.997 683.187 276.31 689.749 269.747C696.31 263.185 699.999 254.278 699.999 244.998V221.665C699.999 212.383 696.311 203.477 689.749 196.915C683.186 190.354 674.279 186.665 664.999 186.665ZM34.9993 256.665C28.5567 256.665 23.3327 251.441 23.3327 244.999V221.665C23.3327 215.223 28.5567 209.999 34.9993 209.999H46.666V256.665H34.9993ZM93.3327 338.332C87.1452 338.332 81.2076 335.874 76.8327 331.499C72.4577 327.124 69.9993 321.186 69.9993 314.999V151.665C69.9993 143.327 74.4472 135.624 81.666 131.457C88.8848 127.291 97.7807 127.291 104.999 131.457C112.218 135.624 116.666 143.327 116.666 151.665V314.999C116.666 321.186 114.208 327.124 109.833 331.499C105.458 335.874 99.5201 338.332 93.3327 338.332ZM209.999 408.332C209.999 420.837 203.327 432.389 192.499 438.644C181.671 444.894 168.327 444.894 157.499 438.644C146.671 432.389 139.999 420.837 139.999 408.332V58.332C139.999 45.8268 146.671 34.2747 157.499 28.02C168.327 21.77 181.671 21.77 192.499 28.02C203.327 34.2752 209.999 45.8267 209.999 58.332V408.332ZM233.333 256.665V209.999H466.666V256.665H233.333ZM559.999 408.332C559.999 420.837 553.327 432.389 542.499 438.644C531.671 444.894 518.327 444.894 507.499 438.644C496.671 432.389 489.999 420.837 489.999 408.332V58.332C489.999 45.8268 496.671 34.2747 507.499 28.02C518.327 21.77 531.671 21.77 542.499 28.02C553.327 34.2752 559.999 45.8267 559.999 58.332V408.332ZM629.999 314.999C629.999 323.337 625.552 331.04 618.333 335.207C611.114 339.373 602.218 339.373 594.999 335.207C587.781 331.04 583.333 323.337 583.333 314.999V151.665C583.333 143.327 587.781 135.624 594.999 131.457C602.218 127.291 611.114 127.291 618.333 131.457C625.551 135.624 629.999 143.327 629.999 151.665V314.999ZM676.666 244.999C676.666 248.092 675.437 251.061 673.249 253.249C671.062 255.436 668.093 256.665 664.999 256.665H653.333V209.999H664.999C668.093 209.999 671.062 211.228 673.249 213.415C675.437 215.603 676.666 218.572 676.666 221.665V244.999Z" fill="#FBFEFD"/>
</svg>
