<?xml version="1.0" encoding="utf-8"?>
<!-- Generator: Adobe Illustrator 27.1.1, SVG Export Plug-In . SVG Version: 6.00 Build 0)  -->
<svg version="1.1" id="Camada_1" xmlns="http://www.w3.org/2000/svg" xmlns:xlink="http://www.w3.org/1999/xlink" x="0px" y="0px"
	 viewBox="0 0 150.97 83.47" style="enable-background:new 0 0 150.97 83.47;" xml:space="preserve">
<style type="text/css">
	.st0{fill:#FFFFFF;}
</style>
<g>
	<g>
		<path class="st0" d="M118.43,80.4H32.62c-1.13,0-2.15-0.7-2.55-1.77L3.01,6.52C2.48,5.11,3.19,3.54,4.6,3.01
			C6.01,2.48,7.58,3.19,8.11,4.6l26.4,70.35h82.04l26.4-70.35c0.53-1.41,2.11-2.12,3.51-1.59c1.41,0.53,2.12,2.1,1.59,3.51
			l-27.06,72.11C120.58,79.7,119.57,80.4,118.43,80.4z"/>
		<path class="st0" d="M99.28,33.83c-6.4,0-9.63-4.53-12.21-8.18c-2.59-3.65-4.36-5.88-7.77-5.88c-3.42,0-5.18,2.24-7.77,5.89
			c-2.59,3.64-5.81,8.18-12.21,8.18c-6.4,0-9.62-4.53-12.21-8.18c-2.59-3.65-4.36-5.89-7.77-5.89c-3.41,0-5.17,2.24-7.76,5.88
			c-2.59,3.65-5.8,8.18-12.2,8.18c-2.25,0-4.32-0.58-6.15-1.72c-1.28-0.79-1.67-2.47-0.88-3.75c0.79-1.28,2.48-1.67,3.75-0.88
			c0.99,0.61,2.03,0.9,3.28,0.9c3.41,0,5.17-2.24,7.75-5.88c2.59-3.64,5.8-8.18,12.2-8.18c6.4,0,9.62,4.53,12.21,8.18
			c2.59,3.65,4.35,5.88,7.77,5.88c3.42,0,5.18-2.24,7.77-5.89c2.59-3.64,5.81-8.18,12.21-8.18c6.4,0,9.62,4.53,12.21,8.18
			c2.59,3.65,4.36,5.89,7.77,5.89c3.43,0,5.19-2.24,7.79-5.89c2.59-3.64,5.82-8.18,12.23-8.18c6.41,0,9.64,4.53,12.23,8.18
			c1.71,2.4,3.32,4.67,5.54,5.5c1.41,0.53,2.12,2.1,1.59,3.51c-0.53,1.41-2.11,2.13-3.51,1.59c-3.78-1.42-6.06-4.62-8.07-7.44
			c-2.6-3.65-4.36-5.89-7.79-5.89c-3.43,0-5.19,2.24-7.79,5.89C108.92,29.3,105.69,33.83,99.28,33.83z"/>
	</g>
</g>
</svg>
