<?xml version="1.0" encoding="utf-8"?>
<!-- Generator: Adobe Illustrator 27.1.1, SVG Export Plug-In . SVG Version: 6.00 Build 0)  -->
<svg version="1.1" id="Camada_1" xmlns="http://www.w3.org/2000/svg" xmlns:xlink="http://www.w3.org/1999/xlink" x="0px" y="0px"
	 viewBox="0 0 150.97 115.39" style="enable-background:new 0 0 150.97 115.39;" xml:space="preserve">
<style type="text/css">
	.st0{fill:#FFFFFF;}
</style>
<g>
	<g>
		<path class="st0" d="M116.94,106H34.03c-1.1,0-2.08-0.68-2.46-1.71L5.43,34.62c-0.51-1.36,0.18-2.88,1.54-3.39
			c1.36-0.52,2.88,0.18,3.39,1.54l25.5,67.97h79.26l25.5-67.97c0.51-1.36,2.03-2.05,3.39-1.54c1.36,0.51,2.05,2.03,1.54,3.39
			l-26.14,69.67C119.02,105.32,118.04,106,116.94,106z"/>
		<path class="st0" d="M134.03,60.47c-0.31,0-0.62-0.05-0.93-0.17c-3.65-1.37-5.85-4.46-7.79-7.19c-2.51-3.53-4.22-5.69-7.53-5.69
			c-1.45,0-2.63-1.18-2.63-2.63c0-1.45,1.18-2.63,2.63-2.63c6.19,0,9.31,4.38,11.82,7.9c1.65,2.32,3.21,4.51,5.36,5.31
			c1.36,0.51,2.05,2.03,1.54,3.39C136.09,59.82,135.09,60.47,134.03,60.47z"/>
		<path class="st0" d="M21.23,61.01c-2.17,0-4.17-0.56-5.95-1.66c-1.24-0.77-1.62-2.39-0.85-3.62c0.77-1.23,2.39-1.62,3.62-0.85
			c0.96,0.59,1.96,0.87,3.17,0.87c3.29,0,4.99-2.16,7.49-5.68c2.5-3.52,5.61-7.9,11.79-7.9c4.64,0,7.4,2.49,9.08,4.36
			c0.97,1.08,0.88,2.75-0.21,3.72c-1.08,0.97-2.74,0.88-3.72-0.21c-1.66-1.85-3.15-2.61-5.15-2.61c-3.29,0-4.99,2.16-7.49,5.68
			C30.52,56.63,27.41,61.01,21.23,61.01z"/>
		<path class="st0" d="M117.57,23.64c-1.12-0.93-2.78-0.77-3.71,0.35l-7.43,9c-0.5,0.61-0.7,1.4-0.56,2.17l0.53,2.74
			c0.87,4.49-0.31,9.09-3.22,12.62l-19,23.01c0,0,0,0,0,0l-6.83,8.27c-0.78,0.94-2.18,1.07-3.11,0.3c-0.94-0.78-1.07-2.17-0.3-3.11
			l15.63-18.93c0.93-1.12,0.77-2.78-0.35-3.71c-1.12-0.93-2.78-0.77-3.71,0.35L69.89,75.63c0,0,0,0-0.01,0c0,0,0,0.01-0.01,0.01
			l-4.08,4.95c-0.37,0.45-0.9,0.73-1.49,0.78c-0.61,0.05-1.17-0.12-1.62-0.49c-0.45-0.37-0.73-0.9-0.79-1.5
			c-0.06-0.59,0.12-1.16,0.49-1.61l10.59-12.82l9.14-11.07c0.93-1.12,0.77-2.78-0.35-3.7c-1.12-0.93-2.78-0.76-3.71,0.35l-3.79,4.59
			c0,0,0,0,0,0l-5.34,6.47L58.33,74.42c0,0,0,0.01-0.01,0.01l-3.79,4.59c-0.37,0.45-0.9,0.73-1.5,0.79
			c-0.59,0.05-1.17-0.12-1.62-0.49c-0.94-0.78-1.07-2.17-0.3-3.11l4.85-5.88v0l1.04-1.26l13.82-16.74c0,0,0,0,0-0.01l4.85-5.87
			c0.93-1.12,0.77-2.78-0.35-3.71c-1.12-0.93-2.78-0.76-3.71,0.35L52.97,65.71l-1.04,1.26c-0.37,0.45-0.9,0.73-1.5,0.79
			c-0.58,0.06-1.17-0.12-1.62-0.49c-0.94-0.78-1.07-2.17-0.3-3.11l19.72-23.88c0,0,0,0,0,0l5.42-6.57c0.65-0.79,0.79-1.88,0.35-2.8
			c-0.43-0.92-1.36-1.51-2.38-1.51H52.8c-1.58,0-2.87-1.29-2.87-2.87c0-1.58,1.29-2.87,2.87-2.87h39.14c0.78,0,1.53-0.35,2.03-0.96
			l7.43-9c0.93-1.12,0.77-2.78-0.35-3.7c-1.12-0.93-2.78-0.77-3.71,0.35l-6.64,8.05H52.8c-4.49,0-8.13,3.65-8.13,8.13
			c0,4.49,3.65,8.13,8.13,8.13h13.25L54.31,48.86l-9.86,11.94c-2.62,3.18-2.17,7.9,1,10.52c0.59,0.49,1.26,0.83,1.95,1.11
			l-0.34,0.41c-2.62,3.18-2.17,7.9,1,10.52c1.35,1.11,3.01,1.71,4.74,1.71c0.24,0,0.49-0.01,0.73-0.03c1.63-0.16,3.05-0.93,4.23-2
			c0.43,0.7,0.91,1.37,1.56,1.91c1.35,1.11,3.01,1.71,4.74,1.71c0.24,0,0.48-0.01,0.73-0.03c1.77-0.17,3.33-1.02,4.56-2.27
			c0.41,0.66,0.91,1.28,1.54,1.8c1.35,1.11,3.01,1.71,4.74,1.71c0.24,0,0.49-0.01,0.73-0.03c1.99-0.19,3.79-1.14,5.05-2.68
			l19.72-23.88c0,0,0,0,0,0l6.1-7.39c3.92-4.74,5.5-10.93,4.33-16.97l-0.29-1.52l6.64-8.05C118.85,26.22,118.69,24.56,117.57,23.64z
			"/>
	</g>
</g>
</svg>
