<?xml version="1.0" encoding="utf-8"?>
<!-- Generator: Adobe Illustrator 27.1.1, SVG Export Plug-In . SVG Version: 6.00 Build 0)  -->
<svg version="1.1" id="Camada_1" xmlns="http://www.w3.org/2000/svg" xmlns:xlink="http://www.w3.org/1999/xlink" x="0px" y="0px"
	 viewBox="0 0 150.97 115.39" style="enable-background:new 0 0 150.97 115.39;" xml:space="preserve">
<style type="text/css">
	.st0{fill:#FFFFFF;}
</style>
<g>
	<path class="st0" d="M118.57,84.25H32.48c-1.14,0-2.16-0.7-2.56-1.77L2.78,10.14c-0.53-1.41,0.18-2.99,1.6-3.52
		C5.79,6.09,7.37,6.8,7.9,8.22l26.48,70.57h82.29l26.48-70.57c0.53-1.41,2.11-2.12,3.52-1.6c1.41,0.53,2.13,2.1,1.6,3.52
		l-27.14,72.34C120.72,83.54,119.7,84.25,118.57,84.25z"/>
	<path class="st0" d="M99.35,37.53c-6.42,0-9.66-4.55-12.25-8.2c-2.6-3.66-4.37-5.9-7.8-5.9c-3.43,0-5.19,2.24-7.8,5.9
		c-2.6,3.65-5.83,8.2-12.25,8.2c-6.42,0-9.65-4.55-12.25-8.2c-2.6-3.66-4.37-5.9-7.8-5.9c-3.42,0-5.18,2.24-7.78,5.9
		c-2.59,3.66-5.82,8.2-12.24,8.2c-2.25,0-4.33-0.58-6.17-1.73c-1.28-0.79-1.68-2.48-0.88-3.76c0.79-1.28,2.48-1.68,3.76-0.88
		c0.99,0.62,2.04,0.9,3.29,0.9c3.42,0,5.18-2.24,7.78-5.9c2.59-3.66,5.82-8.2,12.24-8.2c6.42,0,9.65,4.55,12.25,8.2
		c2.6,3.66,4.37,5.9,7.79,5.9c3.43,0,5.2-2.24,7.8-5.9c2.6-3.66,5.83-8.2,12.25-8.2c6.42,0,9.65,4.55,12.25,8.2
		c2.6,3.66,4.37,5.9,7.8,5.9c3.44,0,5.21-2.24,7.81-5.9c2.6-3.66,5.84-8.2,12.27-8.2c6.43,0,9.67,4.55,12.27,8.2
		c1.71,2.41,3.33,4.68,5.56,5.52c1.41,0.53,2.13,2.11,1.6,3.52c-0.53,1.41-2.12,2.13-3.52,1.6c-3.79-1.42-6.08-4.63-8.09-7.46
		c-2.61-3.66-4.38-5.91-7.82-5.91c-3.44,0-5.21,2.24-7.81,5.9C109.02,32.99,105.78,37.53,99.35,37.53z"/>
	<path class="st0" d="M120.26,97.16H30.79c-1.51,0-2.73-1.22-2.73-2.73c0-1.51,1.22-2.73,2.73-2.73h89.47
		c1.51,0,2.73,1.22,2.73,2.73C122.99,95.94,121.77,97.16,120.26,97.16z"/>
	<path class="st0" d="M120.26,108.95H30.79c-1.51,0-2.73-1.22-2.73-2.73c0-1.51,1.22-2.73,2.73-2.73h89.47
		c1.51,0,2.73,1.22,2.73,2.73C122.99,107.73,121.77,108.95,120.26,108.95z"/>
</g>
</svg>
