<?xml version="1.0" encoding="utf-8"?>
<!-- Generator: Adobe Illustrator 27.1.1, SVG Export Plug-In . SVG Version: 6.00 Build 0)  -->
<svg version="1.1" id="Camada_1" xmlns="http://www.w3.org/2000/svg" xmlns:xlink="http://www.w3.org/1999/xlink" x="0px" y="0px"
	 viewBox="0 0 130 130" style="enable-background:new 0 0 130 130;" xml:space="preserve">
<style type="text/css">
	.st0{fill:#FFFFFF;}
</style>
<g>
	<path class="st0" d="M65,102.14c-27.75,0-50.32-22.58-50.32-50.32C14.68,24.07,37.25,1.49,65,1.49c27.75,0,50.33,22.58,50.33,50.32
		C115.32,79.57,92.75,102.14,65,102.14z M65,6.62c-24.92,0-45.2,20.28-45.2,45.2c0,24.92,20.28,45.2,45.2,45.2
		c24.92,0,45.2-20.28,45.2-45.2C110.2,26.9,89.92,6.62,65,6.62z"/>
	<path class="st0" d="M112.76,115.07H17.24c-1.42,0-2.56-1.15-2.56-2.56c0-1.41,1.15-2.56,2.56-2.56h95.53
		c1.42,0,2.56,1.15,2.56,2.56C115.32,113.92,114.18,115.07,112.76,115.07z"/>
	<path class="st0" d="M112.76,128.51H17.24c-1.42,0-2.56-1.15-2.56-2.56c0-1.41,1.15-2.56,2.56-2.56h95.53
		c1.42,0,2.56,1.15,2.56,2.56C115.32,127.36,114.18,128.51,112.76,128.51z"/>
	<polygon class="st0" points="68.7,66.94 65.09,49.95 64.93,49.95 61.31,66.94 51.46,66.94 44.93,39.03 54.26,39.03 57.46,54.86 
		57.62,54.86 60.79,39.03 69.63,39.03 73,54.86 73.16,54.86 76.16,39.03 85.09,39.03 78.55,66.94 	"/>
</g>
</svg>
