<?xml version="1.0" encoding="utf-8"?>
<!-- Generator: Adobe Illustrator 27.1.1, SVG Export Plug-In . SVG Version: 6.00 Build 0)  -->
<svg version="1.1" id="Camada_1" xmlns="http://www.w3.org/2000/svg" xmlns:xlink="http://www.w3.org/1999/xlink" x="0px" y="0px"
	 viewBox="0 0 130 130" style="enable-background:new 0 0 130 130;" xml:space="preserve">
<style type="text/css">
	.st0{fill:#FFFFFF;}
</style>
<g>
	<path class="st0" d="M65,108.86c-27.75,0-50.32-22.58-50.32-50.32C14.68,30.79,37.25,8.21,65,8.21c27.75,0,50.33,22.58,50.33,50.33
		C115.32,86.29,92.75,108.86,65,108.86z M65,13.34c-24.92,0-45.2,20.28-45.2,45.2s20.28,45.2,45.2,45.2s45.2-20.28,45.2-45.2
		S89.92,13.34,65,13.34z"/>
	<path class="st0" d="M112.76,121.79H17.24c-1.42,0-2.56-1.15-2.56-2.56c0-1.41,1.15-2.56,2.56-2.56h95.53
		c1.42,0,2.56,1.15,2.56,2.56C115.32,120.64,114.18,121.79,112.76,121.79z"/>
	<polygon class="st0" points="54.48,45.76 77.03,45.76 77.03,52.45 63.44,52.45 63.44,57.24 75.12,57.24 75.12,63.64 63.44,63.64 
		63.44,73.66 54.48,73.66 	"/>
</g>
</svg>
