
<?xml version="1.0" encoding="utf-8"?>
<!-- Generator: Adobe Illustrator 27.1.1, SVG Export Plug-In . SVG Version: 6.00 Build 0)  -->
<svg version="1.1" id="Camada_1" xmlns="http://www.w3.org/2000/svg" xmlns:xlink="http://www.w3.org/1999/xlink" x="0px" y="0px"
	 viewBox="0 0 130 130" style="enable-background:new 0 0 130 130;" xml:space="preserve">
<style type="text/css">
	.st0{fill:#FFFFFF;}
</style>
<g>
	<path class="st0" d="M65,115.32c-27.75,0-50.33-22.58-50.33-50.33c0-27.75,22.58-50.32,50.33-50.32
		c27.75,0,50.32,22.58,50.32,50.32C115.32,92.75,92.75,115.32,65,115.32z M65,19.8c-24.92,0-45.2,20.28-45.2,45.2
		s20.28,45.2,45.2,45.2s45.2-20.28,45.2-45.2S89.92,19.8,65,19.8z"/>
	<path class="st0" d="M77.94,61.38v0.53c0,5.27-3.65,9.21-8.93,9.21h-6.69v9h-8.96V52.22h15.66C74.29,52.22,77.94,56.11,77.94,61.38
		z M62.33,64.59h3.69c1.91,0,2.84-1.06,2.84-2.72v-0.32c0-1.66-0.89-2.72-2.84-2.72h-3.69V64.59z"/>
</g>
</svg>
