<svg width="175" height="28" viewBox="0 0 175 28" fill="white" xmlns="http://www.w3.org/2000/svg">
<path d="M0 14.2886C0 18.3448 1.77715 21.6893 3.78252 23.7398C4.96243 24.9491 5.95298 25.7405 7.54076 26.5517C11.5029 28.5673 16.645 28.2687 20.3547 25.8002C20.6703 25.5912 20.8014 25.4916 21.1268 25.3125V27.8756H26.6282V0.706707H21.1268V3.14041C20.7626 3.0558 19.3156 2.07535 18.0386 1.56273C13.9065 -0.0945762 8.96831 0.587261 5.42857 3.31957C3.61257 4.72306 2.05878 6.62921 1.1265 8.77425C0.509839 10.1877 0 12.2581 0 14.2886ZM5.74904 14.2886C5.74904 10.1728 9.19652 6.59934 12.8722 6.59934C15.2563 6.59934 16.9704 7.15676 18.529 8.74438C21.7046 11.9794 21.3161 17.3245 18.529 19.8329C12.9985 24.8098 5.74904 20.4052 5.74904 14.2886Z" fill="#2B2F35"/>
<path d="M56.7523 13.5222V14.8013C56.7523 21.6943 62.9141 27.8706 69.6294 27.8706C75.2619 27.8706 79.5494 25.0587 81.9626 20.1415C85.1139 13.7312 82.5308 5.45965 75.8397 2.03058C69.3381 -1.30394 60.8893 1.74689 58.0002 8.39602C57.4515 9.66513 56.7523 11.7106 56.7523 13.5222ZM62.5014 14.4181C62.5014 13.0245 62.7004 12.1635 63.1423 11.1035C64.9146 6.83826 70.5083 5.13616 74.3782 8.0128L75.7912 9.38145C75.9854 9.63029 75.9854 9.5855 76.1796 9.87914C79.5931 15.0004 76.0437 21.978 69.9984 21.978C65.9488 21.978 62.5014 18.5489 62.5014 14.4181Z" fill="#2B2F35"/>
<path d="M147.761 13.6466C147.761 16.2595 147.902 17.7974 149.053 20.1365C149.533 21.117 150.194 22.2965 150.917 23.0928C152.422 24.7401 153.233 25.5265 155.467 26.6314C159.691 28.7167 164.673 28.1145 168.538 25.4618C169.305 24.9342 169.655 24.5809 170.296 23.9289C176.87 17.1902 175.04 6.31568 166.936 2.07039C161.24 -0.915745 153.651 1.02524 150.14 6.46996C148.79 8.55528 147.761 10.8397 147.761 13.6466ZM153.51 14.4181C153.51 9.94383 156.924 6.60434 160.633 6.60434C162.813 6.60434 165.008 7.30608 166.416 8.87878C171.039 14.0448 167.465 21.9829 161.007 21.9829C156.958 21.978 153.51 18.5489 153.51 14.4181Z" fill="#2B2F35"/>
<path d="M93.1306 13.3928C93.1306 16.2595 93.2617 17.4788 94.3833 20.0569C96.1799 24.1827 101.021 27.8756 106.008 27.8756C109.343 27.8756 112.771 26.8752 115.102 24.6406L116.729 22.9733C118.686 20.8283 119.652 17.3196 119.885 14.423L113.573 17.0508C113.33 17.2499 113.34 17.4589 113.174 17.7924C112.81 18.524 112.305 19.1959 111.732 19.7732C111.053 20.46 109.955 21.1568 108.936 21.5201C106.348 22.4408 103.643 21.7142 101.934 20.3903C95.8837 15.7071 99.773 6.47493 106.008 6.47493C107.144 6.47493 107.251 6.40028 108.309 6.67898C110.086 7.14681 108.868 7.35583 111.524 6.23603L115.758 4.42445C115.01 3.27976 113.136 2.31425 111.927 1.69214C108.722 0.0298541 104.362 0.124416 101.133 1.60753C98.8116 2.67756 97.2287 3.98648 95.7186 6.05189L94.4707 8.10237C93.8832 9.35157 93.1306 11.621 93.1306 13.3928Z" fill="#2B2F35"/>
<path d="M40.6269 15.3139C40.6269 17.2997 41.2921 18.9819 41.9622 20.3555C42.574 21.6146 43.6131 23.0978 44.5939 24.0633C45.5747 25.0288 47.0557 26.0889 48.2939 26.6761C49.9642 27.4724 51.7074 27.8706 53.8778 27.8706V21.978C49.6923 21.978 46.3759 18.4792 46.3759 14.9307V10.8297H53.8778V4.93708H46.3759V0.706726H40.6269V15.3139Z" fill="#2B2F35"/>
<path d="M133.384 13.6466V27.8706H139.133V13.776C139.133 10.1927 142.546 6.59936 146.008 6.59936H146.635V0.706726C142.342 0.706726 139.118 2.30431 136.472 5.53431C136.185 5.88767 136.006 6.08177 135.739 6.45006C134.432 8.28155 133.384 11.1084 133.384 13.6466Z" fill="#2B2F35"/>
<path d="M36.4996 0.706726H30.7506V27.8706H36.4996V0.706726Z" fill="#2B2F35"/>
<path d="M123.507 28H128.882C129.169 28 129.256 27.9104 129.256 27.6168V8.77924H123.507V28Z" fill="#2B2F35"/>
<path d="M106.381 12.7508C106.381 14.9605 107.552 15.9559 109.63 15.9559C110.382 15.9559 113.927 14.2837 114.685 13.9602C115.563 13.5819 116.301 13.2684 117.166 12.915L119.632 11.8549C119.429 9.35654 117.613 6.74865 117.506 6.34552C116.947 6.36045 115.034 7.26127 114.418 7.535C113.34 8.01278 112.407 8.36116 111.31 8.83397C110.761 9.07286 110.373 9.23212 109.81 9.47599C109.241 9.71985 108.79 9.89902 108.217 10.1528C107.314 10.551 106.381 11.5016 106.381 12.7508Z" fill="#2B2F35"/>
<path d="M123.507 5.89762H128.882C129.169 5.89762 129.256 5.80803 129.256 5.5144V0H123.507V5.89762Z" fill="#2B2F35"/>
</svg>
