<?xml version="1.0" encoding="utf-8"?>
<!-- Generator: Adobe Illustrator 27.1.1, SVG Export Plug-In . SVG Version: 6.00 Build 0)  -->
<svg version="1.1" id="Camada_1" xmlns="http://www.w3.org/2000/svg" xmlns:xlink="http://www.w3.org/1999/xlink" x="0px" y="0px"
	 viewBox="0 0 347.04 336.69" style="enable-background:new 0 0 347.04 336.69;" xml:space="preserve">
<style type="text/css">
	.st0{fill:#FFFFFF;}
	.st1{fill:#DE5B3F;}
	.st2{fill:#8CD4AF;}
	.st3{fill:#534EE1;}
</style>
<g>
	<g>
		<path class="st0" d="M119.47,97.58v57.79H96.51l-1.97-17.78c-8.4,13.09-22.97,20.25-38.03,20.25c-31.12,0-55.56-24.7-55.56-60.26
			c0-34.57,25.68-60.5,59.52-60.5C92.56,37.07,119.47,59.3,119.47,97.58 M93.79,97.58c0-23.46-15.56-37.29-33.34-37.29
			c-18.77,0-33.59,15.06-33.59,37.29c0,22.23,14.08,37.04,33.59,37.04C77.24,134.62,93.79,121.53,93.79,97.58"/>
		<rect x="131.96" y="0.19" class="st0" width="25.93" height="155.17"/>
		<path class="st0" d="M229.65,61.27h-34.08v49.39c0,17.29,6.91,23.21,24.7,23.21c1.97,0,3.7,0,8.64-0.25v21.49
			c-5.43,1.24-10.37,1.98-16.05,1.98c-24.7,0-43.47-15.06-43.47-43.46V19.07h26.18v20.47h34.08V61.27z"/>
		<path class="st0" d="M225.59,97.58c0-34.08,25.68-60.5,60.5-60.5c35.07,0,60.75,26.43,60.75,60.5c0,34.08-25.68,60.26-60.75,60.26
			C251.28,157.83,225.59,131.66,225.59,97.58 M320.92,97.58c0-21.73-14.82-37.29-34.82-37.29c-20,0-34.57,15.56-34.57,37.29
			c0,21.48,14.57,37.04,34.57,37.04C306.1,134.62,320.92,119.06,320.92,97.58"/>
		<path class="st0" d="M96.75,169.56h22.72v109.89c0,40.99-29.39,57.05-57.29,57.05c-32.6,0-54.08-15.8-58.53-43.22h26.42
			c3.46,12.6,15.07,20.25,32.11,20.25c16.54,0,31.61-9.88,31.61-34.08v-11.61c-8.4,12.35-22.72,19.26-38.77,19.26
			c-28.15,0-54.82-21.24-54.82-60.01c0-38.77,26.67-60.01,54.82-60.01c16.55,0,31.36,7.16,39.51,20.5L96.75,169.56z M94.28,227.1
			c0-23.46-16.79-36.8-33.83-36.8c-18.52,0-34.57,13.83-34.57,36.8c0,22.96,16.05,36.8,34.57,36.8
			C77.49,263.9,94.28,250.56,94.28,227.1"/>
		<rect x="131.96" y="169.56" class="st0" width="25.93" height="115.82"/>
		<path class="st0" d="M169.39,285.38v-71.12c0-28.65,17.29-47.17,45.19-47.17c5.19,0,9.38,0.74,13.83,1.73v23.71
			c-3.77-0.27-7.16-0.25-8.89-0.25c-15.31,0-24.2,6.91-24.2,26.43v66.68H169.39z"/>
		<path class="st0" d="M225.59,227.6c0-34.08,25.68-60.51,60.5-60.51c35.07,0,60.75,26.43,60.75,60.51
			c0,34.08-25.68,60.26-60.75,60.26C251.28,287.85,225.59,261.67,225.59,227.6 M320.92,227.6c0-21.73-14.82-37.29-34.82-37.29
			c-20,0-34.57,15.56-34.57,37.29c0,21.48,14.57,37.04,34.57,37.04C306.1,264.64,320.92,249.08,320.92,227.6"/>
	</g>
	<g>
		<path class="st0" d="M141.54,314.53c1.15,0,2.23,0.19,3.23,0.56c1,0.38,1.88,0.9,2.65,1.56c0.76,0.66,1.39,1.43,1.89,2.31
			c0.5,0.88,0.83,1.8,0.98,2.78h-3.9c-0.2-1.15-0.77-2.08-1.71-2.8c-0.94-0.71-2.05-1.07-3.32-1.07c-0.7,0-1.38,0.14-2.03,0.43
			c-0.65,0.29-1.23,0.72-1.73,1.29c-0.5,0.58-0.9,1.31-1.2,2.21c-0.3,0.9-0.45,1.96-0.45,3.19c0,1.25,0.15,2.33,0.45,3.25
			c0.3,0.91,0.7,1.66,1.2,2.25c0.5,0.59,1.08,1.03,1.73,1.31c0.65,0.29,1.33,0.43,2.03,0.43c1.25,0,2.36-0.34,3.32-1.03
			c0.96-0.69,1.58-1.63,1.86-2.83h3.94c-0.2,1.05-0.58,2.02-1.14,2.91c-0.56,0.89-1.26,1.65-2.08,2.29
			c-0.83,0.64-1.74,1.13-2.76,1.48c-1.01,0.35-2.08,0.53-3.21,0.53c-1.45,0-2.76-0.26-3.94-0.79c-1.18-0.53-2.18-1.26-3-2.2
			c-0.83-0.94-1.46-2.05-1.89-3.34c-0.44-1.29-0.66-2.7-0.66-4.22c0-1.5,0.23-2.89,0.69-4.17c0.46-1.28,1.11-2.38,1.95-3.32
			c0.84-0.94,1.86-1.68,3.06-2.21C138.69,314.8,140.04,314.53,141.54,314.53z"/>
		<path class="st0" d="M158.05,307.89v4.32h-3.9v-4.32H158.05z M158.05,314.91v20.19h-3.9v-20.19H158.05z"/>
		<path class="st0" d="M169.3,335.58c-1.03,0-1.98-0.14-2.85-0.41c-0.88-0.28-1.64-0.67-2.29-1.18c-0.65-0.51-1.16-1.13-1.52-1.86
			c-0.36-0.73-0.54-1.55-0.54-2.48c0-1.23,0.34-2.24,1.03-3.06c0.69-0.81,1.64-1.48,2.85-2.01c1.21-0.53,2.65-0.94,4.32-1.24
			c1.66-0.3,3.47-0.55,5.42-0.75v-0.41c0-0.9-0.11-1.65-0.34-2.25c-0.23-0.6-0.53-1.09-0.92-1.46c-0.39-0.38-0.84-0.64-1.37-0.81
			c-0.53-0.16-1.1-0.24-1.73-0.24c-1.35,0-2.4,0.33-3.15,0.99c-0.75,0.66-1.16,1.62-1.24,2.87h-3.94c0.08-1.07,0.34-2.04,0.81-2.89
			c0.46-0.85,1.07-1.57,1.82-2.16c0.75-0.59,1.63-1.04,2.63-1.35c1-0.31,2.08-0.47,3.23-0.47c2.6,0,4.62,0.67,6.04,2.01
			c1.43,1.34,2.13,3.52,2.1,6.55c0,0.13-0.01,0.41-0.02,0.84c-0.01,0.44-0.02,0.92-0.02,1.44c0,0.53-0.01,1.03-0.02,1.5
			c-0.01,0.47-0.02,0.83-0.02,1.05c0,3.05,0.19,5.48,0.56,7.28h-3.75c-0.08-0.4-0.14-0.78-0.19-1.14c-0.05-0.36-0.1-0.87-0.15-1.52
			c-0.6,1.03-1.46,1.81-2.59,2.35C172.34,335.31,170.95,335.58,169.3,335.58z M175.91,325.49c-1.58,0.15-2.96,0.33-4.15,0.53
			c-1.19,0.2-2.18,0.46-2.98,0.77c-0.8,0.31-1.41,0.69-1.82,1.14c-0.41,0.45-0.62,1-0.62,1.65c0,0.93,0.34,1.66,1.01,2.2
			c0.68,0.54,1.61,0.81,2.81,0.81c0.8,0,1.55-0.11,2.25-0.32c0.7-0.21,1.31-0.54,1.82-0.99c0.51-0.45,0.92-1.03,1.22-1.74
			c0.3-0.71,0.45-1.57,0.45-2.57V325.49z"/>
		<path class="st0" d="M206.86,307.89h3.9v27.2h-3.9v-2.85c-0.63,1.05-1.46,1.87-2.5,2.46c-1.04,0.59-2.31,0.88-3.81,0.88
			c-1.18,0-2.29-0.24-3.34-0.71c-1.05-0.47-1.98-1.17-2.78-2.08c-0.8-0.91-1.43-2.02-1.89-3.32c-0.46-1.3-0.69-2.78-0.69-4.43
			c0-1.65,0.23-3.13,0.69-4.43c0.46-1.3,1.09-2.4,1.89-3.3c0.8-0.9,1.73-1.59,2.78-2.06c1.05-0.47,2.16-0.71,3.34-0.71
			c1.5,0,2.77,0.29,3.81,0.88c1.04,0.59,1.87,1.41,2.5,2.46V307.89z M207.01,325.04c0-1.25-0.15-2.33-0.45-3.25
			c-0.3-0.91-0.7-1.66-1.2-2.25c-0.5-0.59-1.09-1.03-1.76-1.31c-0.68-0.29-1.39-0.43-2.14-0.43c-1.63,0-2.94,0.64-3.94,1.91
			c-1,1.28-1.5,3.05-1.5,5.33c0,2.28,0.5,4.06,1.5,5.35c1,1.29,2.31,1.93,3.94,1.93c0.75,0,1.46-0.14,2.14-0.43
			c0.68-0.29,1.26-0.73,1.76-1.33c0.5-0.6,0.9-1.36,1.2-2.27C206.86,327.37,207.01,326.29,207.01,325.04z"/>
		<path class="st0" d="M224.46,314.53c1.2,0,2.39,0.21,3.56,0.62c1.18,0.41,2.23,1.05,3.15,1.91c0.92,0.86,1.68,1.96,2.25,3.28
			c0.58,1.33,0.86,2.9,0.86,4.73c0,1.83-0.29,3.4-0.86,4.71c-0.58,1.31-1.33,2.4-2.25,3.26c-0.93,0.86-1.98,1.5-3.15,1.91
			s-2.36,0.62-3.56,0.62c-1.2,0-2.38-0.21-3.55-0.62c-1.16-0.41-2.21-1.05-3.13-1.91s-1.68-1.95-2.25-3.26
			c-0.58-1.31-0.86-2.88-0.86-4.71c0-1.83,0.29-3.4,0.86-4.73c0.58-1.33,1.33-2.42,2.25-3.28c0.93-0.86,1.97-1.5,3.13-1.91
			C222.08,314.74,223.26,314.53,224.46,314.53z M218.8,325.08c0,1.25,0.16,2.33,0.47,3.23c0.31,0.9,0.73,1.65,1.26,2.23
			c0.53,0.59,1.13,1.03,1.82,1.31c0.69,0.29,1.39,0.43,2.12,0.43c0.75,0,1.47-0.14,2.16-0.43c0.69-0.29,1.29-0.73,1.82-1.33
			c0.53-0.6,0.94-1.35,1.26-2.25c0.31-0.9,0.47-1.96,0.47-3.19c0-1.25-0.16-2.33-0.47-3.25c-0.31-0.91-0.73-1.66-1.26-2.25
			c-0.53-0.59-1.13-1.03-1.82-1.31c-0.69-0.29-1.41-0.43-2.16-0.43c-0.73,0-1.43,0.14-2.12,0.41c-0.69,0.28-1.29,0.71-1.82,1.29
			c-0.53,0.59-0.94,1.34-1.26,2.25C218.95,322.71,218.8,323.8,218.8,325.08z"/>
		<path class="st0" d="M250.88,307.89v9.98c0.62-1.05,1.46-1.87,2.5-2.46c1.04-0.59,2.31-0.88,3.81-0.88c1.18,0,2.29,0.24,3.34,0.71
			c1.05,0.47,1.98,1.16,2.78,2.06c0.8,0.9,1.43,2,1.89,3.3c0.46,1.3,0.69,2.78,0.69,4.43c0,1.65-0.23,3.13-0.69,4.43
			c-0.46,1.3-1.09,2.41-1.89,3.32c-0.8,0.91-1.73,1.61-2.78,2.08c-1.05,0.47-2.16,0.71-3.34,0.71c-1.5,0-2.77-0.29-3.81-0.88
			c-1.04-0.59-1.87-1.41-2.5-2.46v2.85h-3.9v-27.2H250.88z M250.73,325.04c0,1.25,0.15,2.33,0.45,3.25c0.3,0.91,0.7,1.67,1.2,2.27
			c0.5,0.6,1.09,1.05,1.76,1.33c0.68,0.29,1.39,0.43,2.14,0.43c1.63,0,2.94-0.64,3.94-1.93c1-1.29,1.5-3.07,1.5-5.35
			c0-2.28-0.5-4.05-1.5-5.33c-1-1.28-2.31-1.91-3.94-1.91c-0.75,0-1.46,0.14-2.14,0.43c-0.68,0.29-1.26,0.73-1.76,1.31
			c-0.5,0.59-0.9,1.34-1.2,2.25C250.88,322.71,250.73,323.79,250.73,325.04z"/>
		<path class="st0" d="M280.26,318.92c-0.73-0.07-1.4-0.11-2.03-0.11c-1.5,0-2.64,0.42-3.41,1.26c-0.78,0.84-1.16,2.32-1.16,4.45
			v10.58h-3.9v-20.19h3.83v3.56c0.53-1.15,1.27-2.04,2.23-2.66c0.96-0.62,2.08-0.95,3.36-0.98c0.18,0,0.36,0,0.54,0
			c0.19,0,0.37,0.01,0.54,0.04V318.92z"/>
		<path class="st0" d="M291.44,314.53c1.2,0,2.39,0.21,3.56,0.62c1.18,0.41,2.23,1.05,3.15,1.91c0.92,0.86,1.68,1.96,2.25,3.28
			c0.58,1.33,0.86,2.9,0.86,4.73c0,1.83-0.29,3.4-0.86,4.71c-0.58,1.31-1.33,2.4-2.25,3.26c-0.93,0.86-1.98,1.5-3.15,1.91
			s-2.36,0.62-3.56,0.62c-1.2,0-2.38-0.21-3.55-0.62c-1.16-0.41-2.21-1.05-3.13-1.91s-1.68-1.95-2.25-3.26s-0.86-2.88-0.86-4.71
			c0-1.83,0.29-3.4,0.86-4.73s1.33-2.42,2.25-3.28c0.93-0.86,1.97-1.5,3.13-1.91C289.06,314.74,290.24,314.53,291.44,314.53z
			 M285.77,325.08c0,1.25,0.16,2.33,0.47,3.23c0.31,0.9,0.73,1.65,1.26,2.23c0.53,0.59,1.13,1.03,1.82,1.31
			c0.69,0.29,1.39,0.43,2.12,0.43c0.75,0,1.47-0.14,2.16-0.43c0.69-0.29,1.29-0.73,1.82-1.33c0.53-0.6,0.94-1.35,1.26-2.25
			c0.31-0.9,0.47-1.96,0.47-3.19c0-1.25-0.16-2.33-0.47-3.25c-0.31-0.91-0.73-1.66-1.26-2.25c-0.53-0.59-1.13-1.03-1.82-1.31
			c-0.69-0.29-1.41-0.43-2.16-0.43c-0.73,0-1.43,0.14-2.12,0.41c-0.69,0.28-1.29,0.71-1.82,1.29c-0.53,0.59-0.94,1.34-1.26,2.25
			C285.93,322.71,285.77,323.8,285.77,325.08z"/>
		<path class="st0" d="M305.96,309.73h3.9v5.18h3.98v2.96h-3.98v11.52c0,1.03,0.14,1.71,0.41,2.06c0.28,0.35,0.9,0.53,1.88,0.53
			h1.65v3.11h-2.85c-1.03,0-1.86-0.08-2.51-0.23c-0.65-0.15-1.16-0.42-1.52-0.81c-0.36-0.39-0.61-0.91-0.75-1.58
			c-0.14-0.66-0.21-1.52-0.21-2.57v-12.04h-3.08v-2.96h3.08V309.73z"/>
		<path class="st0" d="M326.07,314.53c1.2,0,2.39,0.21,3.56,0.62c1.18,0.41,2.23,1.05,3.15,1.91c0.92,0.86,1.68,1.96,2.25,3.28
			c0.58,1.33,0.86,2.9,0.86,4.73c0,1.83-0.29,3.4-0.86,4.71c-0.58,1.31-1.33,2.4-2.25,3.26c-0.93,0.86-1.98,1.5-3.15,1.91
			s-2.36,0.62-3.56,0.62c-1.2,0-2.38-0.21-3.55-0.62c-1.16-0.41-2.21-1.05-3.13-1.91c-0.93-0.86-1.68-1.95-2.25-3.26
			c-0.58-1.31-0.86-2.88-0.86-4.71c0-1.83,0.29-3.4,0.86-4.73c0.58-1.33,1.33-2.42,2.25-3.28c0.93-0.86,1.97-1.5,3.13-1.91
			C323.69,314.74,324.87,314.53,326.07,314.53z M320.41,325.08c0,1.25,0.16,2.33,0.47,3.23c0.31,0.9,0.73,1.65,1.26,2.23
			c0.53,0.59,1.13,1.03,1.82,1.31c0.69,0.29,1.39,0.43,2.12,0.43c0.75,0,1.47-0.14,2.16-0.43c0.69-0.29,1.29-0.73,1.82-1.33
			c0.53-0.6,0.94-1.35,1.26-2.25c0.31-0.9,0.47-1.96,0.47-3.19c0-1.25-0.16-2.33-0.47-3.25c-0.31-0.91-0.73-1.66-1.26-2.25
			c-0.53-0.59-1.13-1.03-1.82-1.31c-0.69-0.29-1.41-0.43-2.16-0.43c-0.73,0-1.43,0.14-2.12,0.41c-0.69,0.28-1.29,0.71-1.82,1.29
			c-0.53,0.59-0.94,1.34-1.26,2.25C320.56,322.71,320.41,323.8,320.41,325.08z"/>
	</g>
</g>
</svg>
