<?xml version="1.0" encoding="utf-8"?>
<!-- Generator: Adobe Illustrator 27.1.1, SVG Export Plug-In . SVG Version: 6.00 Build 0)  -->
<svg version="1.1" id="Camada_1" xmlns="http://www.w3.org/2000/svg" xmlns:xlink="http://www.w3.org/1999/xlink" x="0px" y="0px"
	 viewBox="0 0 347.04 336.69" style="enable-background:new 0 0 347.04 336.69;" xml:space="preserve">
<style type="text/css">
	.st0{fill:#FFFFFF;}
	.st1{fill:#DE5B3F;}
	.st2{fill:#8CD4AF;}
	.st3{fill:#534EE1;}
</style>
<g>
	<g>
		<path class="st0" d="M119.41,97.5v57.85H96.42l-1.98-17.8c-8.41,13.1-22.99,20.27-38.07,20.27c-31.15,0-55.63-24.73-55.63-60.33
			c0-34.61,25.71-60.57,59.58-60.57C92.46,36.92,119.41,59.17,119.41,97.5 M93.7,97.5c0-23.49-15.58-37.33-33.38-37.33
			c-18.79,0-33.62,15.08-33.62,37.33c0,22.25,14.09,37.09,33.62,37.09C77.14,134.58,93.7,121.48,93.7,97.5"/>
		<rect x="131.92" y="0" class="st0" width="25.96" height="155.35"/>
		<path class="st0" d="M229.71,61.15H195.6v49.45c0,17.31,6.92,23.24,24.72,23.24c1.98,0,3.71,0,8.65-0.25v21.51
			c-5.44,1.24-10.38,1.98-16.07,1.98c-24.73,0-43.51-15.08-43.51-43.51V18.9h26.21v20.5h34.12V61.15z"/>
		<path class="st0" d="M225.65,97.5c0-34.12,25.71-60.57,60.57-60.57c35.11,0,60.82,26.46,60.82,60.57
			c0,34.12-25.71,60.33-60.82,60.33C251.37,157.82,225.65,131.61,225.65,97.5 M321.09,97.5c0-21.76-14.84-37.33-34.86-37.33
			c-20.03,0-34.61,15.57-34.61,37.33c0,21.51,14.59,37.09,34.61,37.09C306.25,134.58,321.09,119,321.09,97.5"/>
		<path class="st0" d="M96.67,169.56h22.74v110.02c0,41.04-29.42,57.11-57.36,57.11c-32.64,0-54.14-15.82-58.6-43.27h26.45
			C33.38,306.04,45,313.7,62.05,313.7c16.56,0,31.65-9.89,31.65-34.12v-11.62c-8.41,12.36-22.75,19.28-38.82,19.28
			C26.7,287.25,0,265.98,0,227.17c0-38.82,26.7-60.08,54.88-60.08c16.57,0,31.4,7.17,39.56,20.52L96.67,169.56z M94.19,227.17
			c0-23.49-16.81-36.84-33.87-36.84c-18.54,0-34.61,13.85-34.61,36.84c0,22.99,16.07,36.84,34.61,36.84
			C77.38,264.01,94.19,250.65,94.19,227.17"/>
		<rect x="131.92" y="169.56" class="st0" width="25.96" height="115.95"/>
		<path class="st0" d="M169.39,285.52v-71.2c0-28.68,17.31-47.22,45.24-47.22c5.19,0,9.4,0.74,13.85,1.73v23.74
			c-3.77-0.27-7.17-0.25-8.9-0.25c-15.33,0-24.23,6.92-24.23,26.46v66.75H169.39z"/>
		<path class="st0" d="M225.65,227.66c0-34.12,25.71-60.57,60.57-60.57c35.11,0,60.82,26.46,60.82,60.57
			c0,34.12-25.71,60.32-60.82,60.32C251.37,287.99,225.65,261.78,225.65,227.66 M321.09,227.66c0-21.76-14.84-37.34-34.86-37.34
			c-20.03,0-34.61,15.58-34.61,37.34c0,21.51,14.59,37.08,34.61,37.08C306.25,264.75,321.09,249.17,321.09,227.66"/>
	</g>
	<g>
		<path class="st0" d="M161.6,314.7c4.88,0,6.76,3.16,6.76,7.85v12.73h-3.91V323.6c0-2.93-0.49-5.63-4.17-5.63
			c-3.38,0-5.03,2.44-5.03,6.46v10.86h-3.91v-20.21h3.91v2.93C156.41,316.02,158.44,314.7,161.6,314.7z"/>
		<path class="st0" d="M191.01,329.35c-0.94,3.34-3.94,6.42-9.09,6.42c-6.54,0-10.07-4.77-10.07-10.63c0-6.27,4.21-10.44,9.95-10.44
			c6.24,0,9.88,5.11,9.47,11.68h-15.4c0.38,3.72,2.74,6.05,5.9,6.05c2.82,0,4.47-1.16,5.3-3.08H191.01z M187.21,323.3
			c-0.11-3-2.22-5.41-5.45-5.41c-3.04,0-5.3,1.58-5.82,5.41H187.21z"/>
		<path class="st0" d="M208.06,315.08l3.76,14.65l3.46-14.65h4.24l-5.63,20.21h-3.64L206,319.66l-4.13,15.63h-3.68l-5.6-20.21h4.24
			l3.42,14.65l3.76-14.65H208.06z"/>
		<path class="st0" d="M235.04,318.04c1.24-2.07,3.34-3.34,6.31-3.34c4.7,0,8.71,3.94,8.71,10.52c0,6.61-4.02,10.56-8.71,10.56
			c-2.97,0-5.07-1.28-6.31-3.34v2.85h-3.91v-27.23h3.91V318.04z M245.89,325.22c0-4.54-2.22-7.25-5.45-7.25
			c-3,0-5.56,2.25-5.56,7.25c0,5,2.55,7.29,5.56,7.29C243.68,332.51,245.89,329.76,245.89,325.22z"/>
		<path class="st0" d="M272,329.35c-0.94,3.34-3.94,6.42-9.09,6.42c-6.54,0-10.07-4.77-10.07-10.63c0-6.27,4.21-10.44,9.95-10.44
			c6.24,0,9.88,5.11,9.47,11.68h-15.4c0.38,3.72,2.74,6.05,5.9,6.05c2.82,0,4.47-1.16,5.3-3.08H272z M268.21,323.3
			c-0.11-3-2.22-5.41-5.45-5.41c-3.04,0-5.3,1.58-5.82,5.41H268.21z"/>
		<path class="st0" d="M288.38,322.78v-0.41c0-3.57-1.88-4.77-4.36-4.77c-2.7,0-4.24,1.39-4.39,3.87h-3.94
			c0.34-4.28,3.87-6.87,8.49-6.87c5.22,0,8.23,2.52,8.15,8.56c0,0.49-0.07,3.98-0.07,4.85c0,3.01,0.19,5.48,0.56,7.29h-3.76
			c-0.15-0.79-0.26-1.39-0.34-2.67c-1.2,2.03-3.49,3.16-6.76,3.16c-4.09,0-7.21-2.25-7.21-5.93
			C274.74,324.92,280.53,323.6,288.38,322.78z M278.99,329.76c0,1.84,1.46,3.01,3.83,3.01c3.23,0,5.75-1.62,5.75-5.63v-1.47
			C282.29,326.27,278.99,327.13,278.99,329.76z"/>
		<path class="st0" d="M310.35,321.91c-0.41-2.29-2.48-3.87-5.03-3.87c-2.82,0-5.41,2.22-5.41,7.14c0,5,2.63,7.25,5.41,7.25
			c2.48,0,4.66-1.46,5.18-3.87h3.94c-0.79,4.24-4.73,7.21-9.2,7.21c-5.82,0-9.5-4.47-9.5-10.56c0-6.01,3.79-10.52,9.77-10.52
			c4.62,0,8.15,3.27,8.75,7.21H310.35z"/>
		<path class="st0" d="M328.39,314.7c4.88,0,6.76,3.16,6.76,7.85v12.73h-3.91V323.6c0-2.93-0.49-5.63-4.17-5.63
			c-3.38,0-5.03,2.44-5.03,6.46v10.86h-3.91v-27.23h3.91v9.95C323.2,316.02,325.23,314.7,328.39,314.7z"/>
	</g>
</g>
</svg>
