<svg width="430" height="121" viewBox="0 0 430 121" fill="none" xmlns="http://www.w3.org/2000/svg">
<path d="M0.0200195 2.37001H19.68C31.67 2.40001 37.67 8.97001 37.67 22.08V36.16C37.67 44.4 34.12 49.82 27.03 52.43L42.2 95.99H27.41L15.24 54.8L13.52 55.04V95.98H0.0200195V2.37001ZM13.52 15.68V42.49H16.62C18.5 42.49 19.78 42.36 20.48 42.11C22.93 41.12 24.15 39.14 24.15 36.15V22.07C24.15 17.81 22.19 15.68 18.28 15.68H13.52ZM49.83 2.37001H84.85V15.68H63.33V42.49H81.84V55.85H63.33V82.66H84.85V95.97H49.83V2.37001ZM132.71 77.8C132.71 90.91 126.24 97.47 113.29 97.51C100.38 97.51 93.92 90.94 93.92 77.8V20.54C93.92 7.44001 100.38 0.880005 113.29 0.880005C126.24 0.880005 132.71 7.43001 132.71 20.54V33.14H119.21V20.54C119.21 16.34 117.25 14.23 113.34 14.19H113.25C109.37 14.19 107.43 16.31 107.43 20.54V77.8C107.43 82.03 109.39 84.15 113.3 84.15C117.24 84.15 119.22 82.04 119.22 77.8V65.2H132.72V77.8H132.71Z" fill="white"/>
<path d="M182.49 77.8C182.49 90.91 176.02 97.47 163.07 97.51C150.16 97.51 143.7 90.94 143.7 77.8V20.54C143.7 7.44001 150.16 0.880005 163.07 0.880005C176.02 0.880005 182.49 7.43001 182.49 20.54V33.14H168.99V20.54C168.99 16.34 167.03 14.23 163.12 14.19H163.03C159.15 14.19 157.21 16.31 157.21 20.54V77.8C157.21 82.03 159.17 84.15 163.08 84.15C167.02 84.15 169 82.04 169 77.8V65.2H182.5V77.8H182.49Z" fill="white"/>
<path d="M232.28 77.8C232.28 90.91 225.81 97.47 212.86 97.51C199.95 97.51 193.49 90.94 193.49 77.8V20.54C193.49 7.44001 199.95 0.880005 212.86 0.880005C225.81 0.880005 232.28 7.43001 232.28 20.54V77.8ZM218.78 20.54C218.78 16.34 216.82 14.23 212.91 14.19H212.82C208.94 14.19 207 16.31 207 20.54V77.8C207 82.03 208.96 84.15 212.87 84.15C216.81 84.15 218.79 82.04 218.79 77.8V20.54H218.78Z" fill="white"/>
<path d="M243.73 2.37H263.39C275.38 2.4 281.38 8.97 281.38 22.08V36.16C281.38 44.4 277.83 49.82 270.74 52.43L285.91 95.99H271.12L258.95 54.8L257.23 55.04V95.98H243.73V2.37ZM257.24 15.68V42.49H260.34C262.22 42.49 263.5 42.36 264.2 42.11C266.65 41.12 267.87 39.14 267.87 36.15V22.07C267.87 17.81 265.91 15.68 262 15.68H257.24Z" fill="white"/>
<path d="M293.54 2.37H313.2C325.19 2.4 331.19 8.97 331.19 22.08V36.16C331.19 45.83 326.88 52.06 318.26 54.86C316.19 55.53 313.19 55.86 309.24 55.86H307.04V95.99H293.54V2.37ZM307.05 15.68V42.49H310.15C312.03 42.49 313.31 42.36 314.01 42.11C316.46 41.12 317.68 39.14 317.68 36.15V22.07C317.68 17.81 315.72 15.68 311.81 15.68H307.05Z" fill="white"/>
<path d="M379.52 77.8C379.52 90.91 373.05 97.47 360.1 97.51C347.19 97.51 340.73 90.94 340.73 77.8V2.37H354.23V77.8C354.23 82.03 356.19 84.15 360.1 84.15C364.04 84.15 366.02 82.04 366.02 77.8V2.37H379.52V77.8Z" fill="white"/>
<path d="M390.5 20.54C390.5 7.44001 396.96 0.880005 409.87 0.880005C422.82 0.880005 429.29 7.43001 429.29 20.54V33.14H415.79V20.54C415.79 16.34 413.83 14.23 409.92 14.19H409.83C405.95 14.19 404.01 16.31 404.01 20.54V29.03C404.01 33.2 408.22 38.3 416.65 44.35C425.08 50.36 429.29 57.57 429.29 65.96V77.8C429.29 90.94 422.83 97.51 409.92 97.51C396.97 97.48 390.5 90.91 390.5 77.8V65.2H404V77.8C404 82.03 405.97 84.15 409.92 84.15C413.83 84.15 415.79 82.04 415.79 77.8V67.11C415.79 62.59 411.58 57.31 403.15 51.27C394.72 45.26 390.51 37.94 390.51 29.32V20.54H390.5Z" fill="white"/>
<path d="M94.0901 120.8V106.82H97.3301C98.5601 106.82 99.5301 107.1 100.24 107.66C101.03 108.29 101.43 109.19 101.43 110.37C101.43 111.29 101.16 112.04 100.63 112.6C100.29 112.98 99.7901 113.26 99.1201 113.46C99.8501 113.67 100.4 113.94 100.77 114.27C101.43 114.86 101.75 115.71 101.75 116.83C101.75 118.07 101.36 119.06 100.58 119.79C99.8601 120.46 98.8701 120.79 97.6001 120.79H94.0901V120.8ZM96.2601 112.5H97.0501C97.7301 112.5 98.2601 112.32 98.6501 111.95C99.0301 111.59 99.2201 111.12 99.2201 110.54C99.2201 110.01 99.0401 109.58 98.6901 109.26C98.3701 108.97 97.8401 108.82 97.0901 108.82H96.2601V112.5ZM96.2601 118.8H97.3501C98.0701 118.8 98.6101 118.62 98.9701 118.26C99.3301 117.89 99.5101 117.42 99.5101 116.84C99.5101 116.18 99.3001 115.64 98.8901 115.2C98.4601 114.74 97.8501 114.5 97.0601 114.5H96.2701V118.8H96.2601Z" fill="white"/>
<path d="M118.39 106.81V108.81H114.22V112.49H117.29V114.49H114.22V118.8H118.39V120.8H112.05V106.82H118.39V106.81Z" fill="white"/>
<path d="M133.43 117.76H130.45L129.89 120.8H127.77L130.45 106.82H133.42L136.25 120.8H134.03L133.43 117.76ZM133.06 115.76L131.91 109.5L130.79 115.76H133.06Z" fill="white"/>
<path d="M153.47 111.36H151.31C151.31 111.23 151.31 111.13 151.31 111.07C151.31 109.44 150.76 108.63 149.67 108.63C149.08 108.63 148.65 108.86 148.39 109.32C148.23 109.61 148.14 109.91 148.1 110.24C148.07 110.55 148.06 110.92 148.06 111.33V115.98C148.06 116.96 148.14 117.65 148.3 118.07C148.53 118.67 149 118.97 149.7 118.97C150.81 118.97 151.37 118.05 151.37 116.22C151.37 116.14 151.37 116.02 151.37 115.87H153.53C153.54 116.11 153.54 116.28 153.54 116.39C153.54 117.74 153.27 118.81 152.72 119.61C152.08 120.53 151.07 120.99 149.7 120.99C148.24 120.99 147.2 120.47 146.57 119.43C146.24 118.89 146.04 118.29 145.98 117.64C145.93 117.09 145.9 116.44 145.9 115.67V111.77C145.9 110.43 145.98 109.5 146.16 108.98C146.46 108.05 147.01 107.39 147.8 107C148.35 106.73 148.98 106.59 149.69 106.59C150.88 106.59 151.8 106.96 152.47 107.69C153.16 108.46 153.51 109.52 153.51 110.9C153.48 111.02 153.48 111.17 153.47 111.36Z" fill="white"/>
<path d="M168.98 114.64H165.92V120.8H163.75V106.82H165.92V112.65H168.98V106.82H171.15V120.8H168.98V114.64Z" fill="white"/>
<path d="M199.3 114.32L201.18 114.56C201.09 115.86 200.72 117.02 200.06 118.02C200.35 118.44 200.83 118.73 201.5 118.91V121C200.56 120.95 199.68 120.49 198.86 119.62C198.48 120 198.14 120.27 197.86 120.45C197.32 120.78 196.74 120.94 196.12 120.94C195.25 120.94 194.53 120.64 193.94 120.04C193.26 119.35 192.93 118.51 192.93 117.51C192.93 116.7 193.19 115.86 193.7 114.99C193.93 114.59 194.29 114.1 194.81 113.5C194.19 112.24 193.89 111.11 193.89 110.13C193.89 109.15 194.15 108.34 194.66 107.69C195.21 107.01 195.92 106.67 196.8 106.67C197.53 106.67 198.13 106.92 198.61 107.42C199.14 107.97 199.41 108.68 199.41 109.54C199.41 110.37 199.13 111.17 198.57 111.96C198.33 112.29 197.86 112.89 197.15 113.75C197.61 114.84 198.14 115.75 198.75 116.49C199.03 115.9 199.23 115.18 199.3 114.32ZM195.73 115.37C195.27 116.03 195.04 116.65 195.04 117.23C195.04 117.63 195.15 117.99 195.37 118.32C195.62 118.7 195.93 118.88 196.3 118.88C196.74 118.88 197.18 118.65 197.61 118.18C196.85 117.38 196.23 116.44 195.73 115.37ZM196.23 111.93C197.03 111.01 197.43 110.1 197.43 109.21C197.43 108.45 197.16 108.07 196.61 108.07C196.3 108.07 196.06 108.22 195.9 108.51C195.75 108.78 195.67 109.1 195.67 109.49C195.68 110.25 195.86 111.06 196.23 111.93Z" fill="white"/>
<path d="M225.3 114.58V120.8H223.13V106.82H229.53V108.82H225.3V112.59H228.42V114.59H225.3V114.58Z" fill="white"/>
<path d="M241.4 106.81V120.79H239.23V106.81H241.4Z" fill="white"/>
<path d="M255.87 108.81V120.8H253.7V108.81H250.99V106.81H258.58V108.81H255.87Z" fill="white"/>
<path d="M275.93 106.81V120.79H273.98L270.23 111.49V120.79H268.17V106.81H270.34L273.86 115.51V106.81H275.93Z" fill="white"/>
<path d="M292.79 106.81V108.81H288.62V112.49H291.69V114.49H288.62V118.8H292.79V120.8H286.45V106.82H292.79V106.81Z" fill="white"/>
<path d="M310.02 110.1L307.95 110.72C307.62 109.33 306.99 108.64 306.09 108.64C305.7 108.64 305.37 108.77 305.11 109.03C304.83 109.3 304.69 109.65 304.69 110.06C304.69 110.57 304.89 111.04 305.27 111.46C305.52 111.73 306.14 112.25 307.12 113C308.12 113.78 308.82 114.4 309.21 114.88C309.81 115.61 310.11 116.47 310.11 117.45C310.11 118.48 309.77 119.33 309.08 119.99C308.38 120.67 307.44 121 306.28 121C303.89 121 302.47 119.69 302.03 117.07L304.1 116.47C304.39 118.14 305.11 118.98 306.28 118.98C306.77 118.98 307.16 118.83 307.45 118.53C307.74 118.24 307.88 117.85 307.88 117.38C307.88 116.89 307.7 116.44 307.34 116.03C307.04 115.68 306.53 115.22 305.8 114.66C304.75 113.84 304.12 113.33 303.9 113.12C302.93 112.18 302.45 111.16 302.45 110.06C302.45 108.96 302.84 108.09 303.63 107.45C304.29 106.9 305.12 106.62 306.1 106.62C308.11 106.61 309.42 107.77 310.02 110.1Z" fill="white"/>
<path d="M327.35 110.1L325.28 110.72C324.95 109.33 324.32 108.64 323.41 108.64C323.02 108.64 322.69 108.77 322.43 109.03C322.15 109.3 322.01 109.65 322.01 110.06C322.01 110.57 322.2 111.04 322.59 111.46C322.84 111.73 323.46 112.25 324.44 113C325.44 113.78 326.14 114.4 326.53 114.88C327.13 115.61 327.43 116.47 327.43 117.45C327.43 118.48 327.08 119.33 326.39 119.99C325.69 120.67 324.75 121 323.59 121C321.2 121 319.78 119.69 319.34 117.07L321.41 116.47C321.7 118.14 322.42 118.98 323.59 118.98C324.08 118.98 324.47 118.83 324.76 118.53C325.05 118.24 325.19 117.85 325.19 117.38C325.19 116.89 325.01 116.44 324.65 116.03C324.35 115.68 323.84 115.22 323.11 114.66C322.06 113.84 321.43 113.33 321.21 113.12C320.24 112.18 319.75 111.16 319.75 110.06C319.75 108.96 320.14 108.09 320.93 107.45C321.59 106.9 322.42 106.62 323.4 106.62C325.44 106.61 326.75 107.77 327.35 110.1Z" fill="white"/>
</svg>
