<?xml version="1.0" encoding="utf-8"?>
<!-- Generator: Adobe Illustrator 27.1.1, SVG Export Plug-In . SVG Version: 6.00 Build 0)  -->
<svg version="1.1" id="Camada_1" xmlns="http://www.w3.org/2000/svg" xmlns:xlink="http://www.w3.org/1999/xlink" x="0px" y="0px"
	 viewBox="0 0 347.04 336.69" style="enable-background:new 0 0 347.04 336.69;" xml:space="preserve">
<style type="text/css">
	.st0{fill:#FFFFFF;}
	.st1{fill:#DE5B3F;}
	.st2{fill:#8CD4AF;}
	.st3{fill:#534EE1;}
</style>
<g>
	<path class="st0" d="M61.92,38.77c-33.4,0-58.75,25.59-58.75,59.72c0,35.1,24.13,59.48,54.85,59.48c14.87,0,29.25-7.07,37.54-19.99
		l1.95,17.55h22.67V98.49C120.17,60.71,93.6,38.77,61.92,38.77z M61.92,135.06c-19.26,0-33.15-14.62-33.15-36.56
		c0-21.94,14.62-36.81,33.15-36.81c17.55,0,32.91,13.65,32.91,36.81C94.82,122.14,78.49,135.06,61.92,135.06z"/>
	<rect x="132.5" y="2.37" class="st0" width="25.59" height="153.16"/>
	<path class="st0" d="M212.35,157.24c5.61,0,10.48-0.73,15.84-1.95v-21.21c-4.88,0.24-6.58,0.24-8.53,0.24
		c-17.55,0-24.38-5.85-24.38-22.91V62.66h33.64V41.21h-33.64V21h-25.84v93.34C169.45,142.37,187.97,157.24,212.35,157.24z"/>
	<path class="st0" d="M284.64,157.97c34.61,0,59.96-25.84,59.96-59.48c0-33.64-25.35-59.72-59.96-59.72
		c-34.37,0-59.72,26.08-59.72,59.72C224.92,132.13,250.27,157.97,284.64,157.97z M284.64,61.69c19.74,0,34.37,15.35,34.37,36.81
		c0,21.21-14.63,36.56-34.37,36.56c-19.75,0-34.13-15.36-34.13-36.56C250.51,77.04,264.89,61.69,284.64,61.69z"/>
	<path class="st0" d="M95.55,187.34c-8.04-13.16-22.67-20.23-39-20.23c-27.79,0-54.11,20.96-54.11,59.23
		c0,38.27,26.32,59.23,54.11,59.23c15.84,0,29.98-6.82,38.27-19.01v11.46c0,23.89-14.87,33.64-31.2,33.64
		c-16.82,0-28.27-7.56-31.69-19.99H5.85c4.39,27.06,25.6,42.66,57.77,42.66c27.54,0,56.55-15.85,56.55-56.31V169.55H97.75
		L95.55,187.34z M61.92,262.66c-18.28,0-34.13-13.65-34.13-36.32c0-22.67,15.84-36.32,34.13-36.32c16.82,0,33.39,13.17,33.39,36.32
		C95.31,249.5,78.73,262.66,61.92,262.66z"/>
	<rect x="132.5" y="169.55" class="st0" width="25.59" height="114.32"/>
	<path class="st0" d="M227.71,168.81c-4.39-0.97-8.53-1.71-13.65-1.71c-27.54,0-44.61,18.28-44.61,46.56v70.2h25.59v-65.81
		c0-19.26,8.77-26.08,23.89-26.08c1.71,0,5.06-0.02,8.77,0.24V168.81z"/>
	<path class="st0" d="M284.64,167.11c-34.37,0-59.72,26.08-59.72,59.72c0,33.64,25.35,59.48,59.72,59.48
		c34.61,0,59.96-25.84,59.96-59.48C344.6,193.19,319.25,167.11,284.64,167.11z M284.64,263.39c-19.75,0-34.13-15.36-34.13-36.56
		c0-21.45,14.38-36.81,34.13-36.81c19.74,0,34.37,15.36,34.37,36.81C319.01,248.04,304.38,263.39,284.64,263.39z"/>
</g>
</svg>
