<?xml version="1.0" encoding="utf-8"?>
<!-- Generator: Adobe Illustrator 27.1.1, SVG Export Plug-In . SVG Version: 6.00 Build 0)  -->
<svg version="1.1" id="Camada_1" xmlns="http://www.w3.org/2000/svg" xmlns:xlink="http://www.w3.org/1999/xlink" x="0px" y="0px"
	 viewBox="0 0 150.97 87.46" style="enable-background:new 0 0 150.97 87.46;" xml:space="preserve">
<style type="text/css">
	.st0{fill:#FFFFFF;}
</style>
<g>
	<path class="st0" d="M116.94,81.2H34.03c-1.1,0-2.08-0.68-2.46-1.71L5.43,9.82C4.91,8.46,5.6,6.94,6.96,6.43
		c1.36-0.52,2.88,0.17,3.39,1.54l25.5,67.97h79.26l25.5-67.97c0.51-1.36,2.03-2.04,3.39-1.54c1.36,0.51,2.05,2.03,1.54,3.39
		l-26.14,69.67C119.02,80.52,118.04,81.2,116.94,81.2z"/>
	<path class="st0" d="M98.44,36.21c-6.19,0-9.3-4.38-11.8-7.9c-2.51-3.52-4.21-5.68-7.51-5.68c-3.3,0-5,2.16-7.51,5.69
		c-2.5,3.52-5.61,7.9-11.8,7.9c-6.18,0-9.3-4.38-11.8-7.9c-2.51-3.52-4.21-5.69-7.51-5.69c-3.29,0-4.99,2.16-7.49,5.68
		c-2.5,3.52-5.61,7.9-11.79,7.9c-2.17,0-4.17-0.56-5.95-1.66c-1.24-0.77-1.62-2.39-0.85-3.62c0.77-1.24,2.39-1.62,3.62-0.85
		c0.96,0.59,1.96,0.87,3.17,0.87c3.29,0,4.99-2.16,7.49-5.68c2.5-3.52,5.61-7.9,11.79-7.9c6.19,0,9.3,4.38,11.8,7.9
		c2.51,3.52,4.21,5.68,7.51,5.68c3.3,0,5-2.16,7.51-5.69c2.5-3.52,5.61-7.9,11.8-7.9c6.19,0,9.3,4.38,11.8,7.9
		c2.51,3.52,4.21,5.69,7.51,5.69c3.31,0,5.02-2.16,7.53-5.69c2.51-3.52,5.62-7.9,11.82-7.9c6.19,0,9.31,4.38,11.82,7.9
		c1.65,2.32,3.21,4.51,5.36,5.31c1.36,0.51,2.05,2.03,1.54,3.39c-0.51,1.36-2.04,2.05-3.39,1.54c-3.65-1.37-5.85-4.46-7.79-7.19
		c-2.51-3.53-4.22-5.69-7.53-5.69c-3.31,0-5.02,2.16-7.53,5.69C107.75,31.83,104.63,36.21,98.44,36.21z"/>
	<g>
		<path class="st0" d="M129.14,74.75c-0.24,0-0.48-0.03-0.72-0.1L9.74,41.19c-1.4-0.39-2.21-1.85-1.82-3.25
			c0.39-1.4,1.85-2.23,3.25-1.82l118.69,33.45c1.4,0.39,2.21,1.85,1.82,3.25C131.35,73.99,130.29,74.75,129.14,74.75z"/>
		<path class="st0" d="M21.83,74.75c-1.15,0-2.2-0.76-2.53-1.92c-0.39-1.4,0.42-2.85,1.82-3.25l118.69-33.45
			c1.39-0.41,2.85,0.42,3.25,1.82c0.39,1.4-0.42,2.85-1.82,3.25L22.55,74.65C22.31,74.72,22.07,74.75,21.83,74.75z"/>
	</g>
</g>
</svg>
