<?xml version="1.0" encoding="utf-8"?>
<!-- Generator: Adobe Illustrator 27.1.1, SVG Export Plug-In . SVG Version: 6.00 Build 0)  -->
<svg version="1.1" id="Camada_1" xmlns="http://www.w3.org/2000/svg" xmlns:xlink="http://www.w3.org/1999/xlink" x="0px" y="0px"
	 viewBox="0 0 130 114.73" style="enable-background:new 0 0 130 114.73;" xml:space="preserve">
<style type="text/css">
	.st0{fill:#FFFFFF;}
</style>
<g>
	<path class="st0" d="M65,101.64c-24.42,0-44.28-19.86-44.28-44.28c0-24.41,19.86-44.28,44.28-44.28
		c24.42,0,44.28,19.86,44.28,44.28C109.28,81.78,89.42,101.64,65,101.64z M65,17.59c-21.93,0-39.77,17.84-39.77,39.77
		S43.07,97.13,65,97.13s39.77-17.84,39.77-39.77S86.93,17.59,65,17.59z"/>
	<g>
		<path class="st0" d="M120.72,83.36c-0.3,0-0.6-0.06-0.88-0.18L8.39,35.71c-1.15-0.49-1.68-1.81-1.19-2.96
			c0.49-1.15,1.83-1.68,2.96-1.19l111.44,47.47c1.15,0.49,1.68,1.81,1.19,2.96C122.43,82.84,121.6,83.36,120.72,83.36z"/>
		<path class="st0" d="M9.28,83.36c-0.88,0-1.71-0.51-2.07-1.37c-0.49-1.15,0.04-2.47,1.19-2.96l111.44-47.47
			c1.14-0.48,2.47,0.04,2.96,1.19c0.49,1.15-0.04,2.47-1.19,2.96L10.16,83.18C9.87,83.3,9.57,83.36,9.28,83.36z"/>
	</g>
</g>
</svg>
