<?xml version="1.0" encoding="utf-8"?>
<!-- Generator: Adobe Illustrator 27.1.1, SVG Export Plug-In . SVG Version: 6.00 Build 0)  -->
<svg version="1.1" id="Camada_1" xmlns="http://www.w3.org/2000/svg" xmlns:xlink="http://www.w3.org/1999/xlink" x="0px" y="0px"
	 viewBox="0 0 168.93 104.42" style="enable-background:new 0 0 168.93 104.42;" xml:space="preserve">
<style type="text/css">
	.st0{fill:#FFFFFF;}
</style>
<g>
	<path class="st0" d="M149.86,91.64c-0.02,0-0.04,0-0.06,0H19.07c-0.97,0-1.88-0.5-2.39-1.33c-0.51-0.83-0.55-1.86-0.12-2.73
		l6.77-13.43C33.56,53.88,54.01,41.29,76.7,41.29h58.57l-3.02-12.27c-2.9-11.79-13.41-20.03-25.55-20.03H44.54
		c-1.55,0-2.8-1.25-2.8-2.8s1.25-2.8,2.8-2.8h62.15c14.73,0,27.48,9.99,31,24.3l3.87,15.72c0,0.01,0.01,0.02,0.01,0.02l10.99,44.68
		c0.03,0.13,0.06,0.26,0.08,0.39c0.04,0.33,0.02,0.65-0.05,0.96c-0.09,0.42-0.28,0.8-0.54,1.12c-0.25,0.32-0.57,0.58-0.94,0.77
		c-0.28,0.14-0.59,0.24-0.92,0.28C150.08,91.63,149.97,91.64,149.86,91.64z M23.63,86.03h122.65l-9.63-39.13H76.7
		c-20.56,0-39.09,11.41-48.35,29.77L23.63,86.03z"/>
	<g>
		<path class="st0" d="M125.83,101.03c-0.66,0-1.33-0.23-1.86-0.7L48.89,33.94c-1.16-1.03-1.27-2.8-0.24-3.96
			c1.03-1.16,2.8-1.27,3.96-0.24l75.08,66.39c1.16,1.03,1.27,2.8,0.24,3.96C127.38,100.71,126.61,101.03,125.83,101.03z"/>
		<path class="st0" d="M50.75,101.03c-0.78,0-1.55-0.32-2.1-0.95c-1.03-1.16-0.92-2.93,0.24-3.96l75.08-66.39
			c1.16-1.03,2.93-0.92,3.96,0.24c1.03,1.16,0.92,2.93-0.24,3.96L52.6,100.33C52.07,100.8,51.41,101.03,50.75,101.03z"/>
	</g>
</g>
</svg>
