<?xml version="1.0" encoding="utf-8"?>
<!-- Generator: Adobe Illustrator 27.1.1, SVG Export Plug-In . SVG Version: 6.00 Build 0)  -->
<svg version="1.1" id="Camada_1" xmlns="http://www.w3.org/2000/svg" xmlns:xlink="http://www.w3.org/1999/xlink" x="0px" y="0px"
	 viewBox="0 0 122.38 115.06" style="enable-background:new 0 0 122.38 115.06;" xml:space="preserve">
<style type="text/css">
	.st0{fill:#FFFFFF;}
</style>
<g>
	<g>
		<path class="st0" d="M113.44,105.29H8.94c-0.91,0-1.76-0.48-2.21-1.28c-0.46-0.79-0.46-1.77,0-2.56l52.25-90.5
			c0.92-1.58,3.51-1.58,4.43,0l52.25,90.5c0.46,0.79,0.46,1.77,0,2.56C115.19,104.81,114.35,105.29,113.44,105.29z M13.37,100.18
			h95.64L61.19,17.35L13.37,100.18z"/>
		<path class="st0" d="M34.5,105.29c-0.43,0-0.87-0.11-1.28-0.34c-1.22-0.7-1.64-2.27-0.94-3.49L71.76,33.1
			c0.71-1.22,2.26-1.63,3.49-0.93c1.22,0.7,1.64,2.27,0.94,3.49l-39.46,68.36C36.25,104.83,35.39,105.29,34.5,105.29z"/>
		<path class="st0" d="M65.98,105.29c-0.43,0-0.87-0.11-1.27-0.34c-1.22-0.7-1.64-2.27-0.94-3.49l23.73-41.1
			c0.71-1.22,2.27-1.63,3.49-0.93c1.22,0.71,1.64,2.27,0.94,3.49l-23.73,41.1C67.72,104.83,66.86,105.29,65.98,105.29z"/>
	</g>
</g>
</svg>
