<?xml version="1.0" encoding="utf-8"?>
<!-- Generator: Adobe Illustrator 27.1.1, SVG Export Plug-In . SVG Version: 6.00 Build 0)  -->
<svg version="1.1" id="Camada_1" xmlns="http://www.w3.org/2000/svg" xmlns:xlink="http://www.w3.org/1999/xlink" x="0px" y="0px"
	 viewBox="0 0 136.67 104.09" style="enable-background:new 0 0 136.67 104.09;" xml:space="preserve">
<style type="text/css">
	.st0{fill:#FFFFFF;}
</style>
<g>
	<path class="st0" d="M119.95,98.97H15.45c-0.91,0-1.76-0.48-2.21-1.28c-0.46-0.79-0.46-1.77,0-2.56l52.25-90.5
		c0.92-1.58,3.51-1.58,4.43,0l52.25,90.5c0.46,0.79,0.46,1.77,0,2.56C121.71,98.49,120.86,98.97,119.95,98.97z M19.88,93.86h95.64
		L67.7,11.03L19.88,93.86z"/>
	<path class="st0" d="M130.85,92.88c-0.34,0-0.68-0.06-1-0.2L3.55,38.88c-1.3-0.56-1.9-2.06-1.35-3.36c0.55-1.3,2.06-1.9,3.35-1.35
		l126.3,53.8c1.3,0.56,1.9,2.06,1.35,3.36C132.79,92.3,131.84,92.88,130.85,92.88z"/>
	<path class="st0" d="M4.55,92.88c-0.99,0-1.94-0.58-2.35-1.55c-0.55-1.3,0.05-2.8,1.35-3.36l126.3-53.8
		c1.29-0.55,2.8,0.05,3.35,1.35c0.55,1.3-0.05,2.8-1.35,3.36L5.55,92.68C5.23,92.82,4.89,92.88,4.55,92.88z"/>
</g>
</svg>
