<?xml version="1.0" encoding="utf-8"?>
<!-- Generator: Adobe Illustrator 27.1.1, SVG Export Plug-In . SVG Version: 6.00 Build 0)  -->
<svg version="1.1" id="Camada_1" xmlns="http://www.w3.org/2000/svg" xmlns:xlink="http://www.w3.org/1999/xlink" x="0px" y="0px"
	 viewBox="0 0 120 120" style="enable-background:new 0 0 120 120;" xml:space="preserve">
<style type="text/css">
	.st0{fill:#FFFFFF;}
</style>
<g>
	<path class="st0" d="M94.15,105.33H25.85c-6.16,0-11.18-5.01-11.18-11.18V25.85c0-6.16,5.01-11.18,11.18-11.18h68.31
		c6.16,0,11.18,5.01,11.18,11.18v68.31C105.33,100.32,100.31,105.33,94.15,105.33z M25.85,19.29c-3.62,0-6.56,2.94-6.56,6.56v68.31
		c0,3.62,2.94,6.56,6.56,6.56h68.31c3.62,0,6.56-2.94,6.56-6.56V25.85c0-3.62-2.94-6.56-6.56-6.56H25.85z"/>
	<path class="st0" d="M60,105.33c-24.99,0-45.33-20.34-45.33-45.33c0-24.99,20.33-45.33,45.33-45.33S105.33,35.01,105.33,60
		C105.33,84.99,84.99,105.33,60,105.33z M60,19.29c-22.45,0-40.71,18.27-40.71,40.71S37.55,100.71,60,100.71S100.71,82.45,100.71,60
		S82.45,19.29,60,19.29z"/>
	<g>
		<path class="st0" d="M117.04,86.61c-0.3,0-0.61-0.06-0.91-0.19L2.05,37.82c-1.17-0.5-1.72-1.86-1.22-3.03
			c0.5-1.17,1.87-1.71,3.03-1.22l114.09,48.6c1.17,0.5,1.72,1.86,1.22,3.03C118.79,86.08,117.94,86.61,117.04,86.61z"/>
		<path class="st0" d="M2.96,86.61c-0.9,0-1.75-0.53-2.13-1.41c-0.5-1.17,0.05-2.53,1.22-3.03l114.09-48.6
			c1.17-0.5,2.52,0.05,3.03,1.22c0.5,1.17-0.05,2.53-1.22,3.03L3.86,86.42C3.57,86.55,3.26,86.61,2.96,86.61z"/>
	</g>
</g>
</svg>
