<?xml version="1.0" encoding="utf-8"?>
<!-- Generator: Adobe Illustrator 27.1.1, SVG Export Plug-In . SVG Version: 6.00 Build 0)  -->
<svg version="1.1" id="Camada_1" xmlns="http://www.w3.org/2000/svg" xmlns:xlink="http://www.w3.org/1999/xlink" x="0px" y="0px"
	 viewBox="0 0 120 120" style="enable-background:new 0 0 120 120;" xml:space="preserve">
<style type="text/css">
	.st0{fill:#FFFFFF;}
</style>
<g>
	<path class="st0" d="M94.14,105.33H25.86c-6.17,0-11.19-5.02-11.19-11.19V25.86c0-6.17,5.02-11.19,11.19-11.19h68.28
		c6.17,0,11.19,5.02,11.19,11.19v68.29C105.33,100.31,100.31,105.33,94.14,105.33z M25.86,19.29c-3.62,0-6.57,2.95-6.57,6.57v68.29
		c0,3.62,2.95,6.57,6.57,6.57h68.28c3.62,0,6.57-2.95,6.57-6.57V25.86c0-3.62-2.95-6.57-6.57-6.57H25.86z"/>
	<path class="st0" d="M60,41.53c-16.55,0-32.05-7.34-42.55-20.13c-0.81-0.99-0.67-2.44,0.32-3.25c0.98-0.81,2.44-0.67,3.25,0.32
		C30.64,30.19,44.84,36.91,60,36.91c15.16,0,29.37-6.72,38.98-18.44c0.81-0.99,2.26-1.13,3.25-0.32c0.99,0.81,1.13,2.26,0.32,3.25
		C92.06,34.19,76.55,41.53,60,41.53z"/>
</g>
</svg>
