<?xml version="1.0" encoding="utf-8"?>
<!-- Generator: Adobe Illustrator 27.1.1, SVG Export Plug-In . SVG Version: 6.00 Build 0)  -->
<svg version="1.1" id="Camada_1" xmlns="http://www.w3.org/2000/svg" xmlns:xlink="http://www.w3.org/1999/xlink" x="0px" y="0px"
	 viewBox="0 0 120 120" style="enable-background:new 0 0 120 120;" xml:space="preserve">
<style type="text/css">
	.st0{fill:#FFFFFF;}
</style>
<g>
	<g>
		<path class="st0" d="M94.15,105.33H25.85c-6.16,0-11.18-5.01-11.18-11.18V25.85c0-6.16,5.01-11.18,11.18-11.18h68.31
			c6.16,0,11.18,5.01,11.18,11.18v68.31C105.33,100.32,100.32,105.33,94.15,105.33z M25.85,19.29c-3.62,0-6.56,2.94-6.56,6.56v68.31
			c0,3.62,2.94,6.56,6.56,6.56h68.31c3.62,0,6.56-2.94,6.56-6.56V25.85c0-3.62-2.94-6.56-6.56-6.56H25.85z"/>
		<path class="st0" d="M60,105.33c-24.99,0-45.33-20.34-45.33-45.33c0-24.99,20.33-45.33,45.33-45.33S105.33,35.01,105.33,60
			C105.33,84.99,84.99,105.33,60,105.33z M60,19.29c-22.45,0-40.71,18.27-40.71,40.71S37.55,100.71,60,100.71
			S100.71,82.45,100.71,60S82.45,19.29,60,19.29z"/>
		<path class="st0" d="M46.07,71.57c-6.38,0-11.57-5.19-11.57-11.57s5.19-11.57,11.57-11.57c6.38,0,11.57,5.19,11.57,11.57
			S52.45,71.57,46.07,71.57z M46.07,53.05c-3.83,0-6.95,3.12-6.95,6.95c0,3.83,3.12,6.95,6.95,6.95c3.83,0,6.95-3.12,6.95-6.95
			C53.02,56.17,49.9,53.05,46.07,53.05z"/>
		<path class="st0" d="M74.83,71.57c-6.38,0-11.57-5.19-11.57-11.57s5.19-11.57,11.57-11.57c6.38,0,11.57,5.19,11.57,11.57
			S81.21,71.57,74.83,71.57z M74.83,53.05c-3.83,0-6.95,3.12-6.95,6.95c0,3.83,3.12,6.95,6.95,6.95c3.83,0,6.95-3.12,6.95-6.95
			C81.78,56.17,78.66,53.05,74.83,53.05z"/>
	</g>
</g>
</svg>
