<?xml version="1.0" encoding="utf-8"?>
<!-- Generator: Adobe Illustrator 27.1.1, SVG Export Plug-In . SVG Version: 6.00 Build 0)  -->
<svg version="1.1" id="Camada_1" xmlns="http://www.w3.org/2000/svg" xmlns:xlink="http://www.w3.org/1999/xlink" x="0px" y="0px"
	 viewBox="0 0 120 120" style="enable-background:new 0 0 120 120;" xml:space="preserve">
<style type="text/css">
	.st0{fill:#FFFFFF;}
</style>
<g>
	<path class="st0" d="M93.86,105.33H26.13c-6.16,0-11.18-5.01-11.18-11.18V25.85c0-6.16,5.01-11.18,11.18-11.18h67.73
		c6.16,0,11.18,5.01,11.18,11.18v68.31C105.04,100.32,100.03,105.33,93.86,105.33z M26.13,19.29c-3.62,0-6.56,2.94-6.56,6.56v68.31
		c0,3.62,2.94,6.56,6.56,6.56h67.73c3.62,0,6.56-2.94,6.56-6.56V25.85c0-3.62-2.94-6.56-6.56-6.56H26.13z"/>
	<g>
		<path class="st0" d="M60,83.82c-1.27,0-2.31-1.03-2.31-2.31V38.49c0-1.28,1.03-2.31,2.31-2.31c1.27,0,2.31,1.03,2.31,2.31v43.02
			C62.31,82.79,61.27,83.82,60,83.82z"/>
		<path class="st0" d="M39.86,83.82c-1.27,0-2.31-1.03-2.31-2.31V38.49c0-1.28,1.04-2.31,2.31-2.31s2.31,1.03,2.31,2.31v43.02
			C42.17,82.79,41.13,83.82,39.86,83.82z"/>
		<path class="st0" d="M80.14,83.82c-1.27,0-2.31-1.03-2.31-2.31V38.49c0-1.28,1.03-2.31,2.31-2.31c1.27,0,2.31,1.03,2.31,2.31
			v43.02C82.45,82.79,81.41,83.82,80.14,83.82z"/>
	</g>
</g>
</svg>
