<?xml version="1.0" encoding="utf-8"?>
<!-- Generator: Adobe Illustrator 27.1.1, SVG Export Plug-In . SVG Version: 6.00 Build 0)  -->
<svg version="1.1" id="Camada_1" xmlns="http://www.w3.org/2000/svg" xmlns:xlink="http://www.w3.org/1999/xlink" x="0px" y="0px"
	 viewBox="0 0 120 120" style="enable-background:new 0 0 120 120;" xml:space="preserve">
<style type="text/css">
	.st0{fill:#FFFFFF;}
</style>
<g>
	<path class="st0" d="M94.15,105.33h-68.3c-6.16,0-11.18-5.01-11.18-11.18V25.85c0-6.16,5.01-11.18,11.18-11.18h68.3
		c6.16,0,11.18,5.01,11.18,11.18v68.31C105.33,100.32,100.31,105.33,94.15,105.33z M25.85,19.29c-3.62,0-6.56,2.94-6.56,6.56v68.31
		c0,3.62,2.94,6.56,6.56,6.56h68.3c3.62,0,6.56-2.94,6.56-6.56V25.85c0-3.62-2.94-6.56-6.56-6.56H25.85z"/>
	<path class="st0" d="M81.51,62.31H38.49c-1.27,0-2.31-1.03-2.31-2.31c0-1.28,1.03-2.31,2.31-2.31h43.02c1.27,0,2.31,1.03,2.31,2.31
		C83.82,61.28,82.78,62.31,81.51,62.31z"/>
</g>
</svg>
