<?xml version="1.0" encoding="utf-8"?>
<!-- Generator: Adobe Illustrator 27.1.1, SVG Export Plug-In . SVG Version: 6.00 Build 0)  -->
<svg version="1.1" id="Camada_1" xmlns="http://www.w3.org/2000/svg" xmlns:xlink="http://www.w3.org/1999/xlink" x="0px" y="0px"
	 viewBox="0 0 120 120" style="enable-background:new 0 0 120 120;" xml:space="preserve">
<style type="text/css">
	.st0{fill:#FFFFFF;}
</style>
<g>
	<path class="st0" d="M94.15,105.33H25.85c-6.16,0-11.18-5.01-11.18-11.18V25.85c0-6.16,5.01-11.18,11.18-11.18h68.31
		c6.16,0,11.18,5.01,11.18,11.18v68.31C105.33,100.32,100.31,105.33,94.15,105.33z M25.85,19.29c-3.62,0-6.56,2.94-6.56,6.56v68.31
		c0,3.62,2.94,6.56,6.56,6.56h68.31c3.62,0,6.56-2.94,6.56-6.56V25.85c0-3.62-2.94-6.56-6.56-6.56H25.85z"/>
	<path class="st0" d="M16.98,43.42c-0.59,0-1.18-0.23-1.63-0.68c-0.9-0.9-0.9-2.36,0-3.27l24.14-24.13c0.9-0.9,2.36-0.9,3.27,0
		c0.9,0.9,0.9,2.36,0,3.27L18.61,42.75C18.16,43.2,17.57,43.42,16.98,43.42z"/>
	<path class="st0" d="M16.98,62.31c-0.59,0-1.18-0.22-1.63-0.68c-0.9-0.9-0.9-2.36,0-3.27l43.02-43.02c0.9-0.9,2.36-0.9,3.27,0
		c0.9,0.9,0.9,2.36,0,3.27L18.61,61.63C18.16,62.08,17.57,62.31,16.98,62.31z"/>
</g>
</svg>
